<?xml version="1.0" encoding="utf-8"?>
<svg xmlns="http://www.w3.org/2000/svg" viewBox="0 0 50 50" width="500" height="500">
  <path d="M8.8125 2C8.335938 2.089844 7.992188 2.511719 8 3L8 27.28125C4.460938 29.109375 2 32.75 2 37C2 43.0625 6.9375 48 13 48C19.0625 48 24 43.0625 24 37C24 32.75 21.539063 29.109375 18 27.28125L18 24L21 24L21 22L18 22L18 20L20 20L20 18L18 18L18 16L21 16L21 14L18 14L18 12L20 12L20 10L18 10L18 8L21 8L21 6L18 6L18 3C18 2.449219 17.550781 2 17 2L9 2C8.96875 2 8.9375 2 8.90625 2C8.875 2 8.84375 2 8.8125 2 Z M 44 2.0625L43.15625 3.28125C43.15625 3.28125 42.398438 4.445313 41.625 5.8125C41.238281 6.496094 40.867188 7.230469 40.5625 7.9375C40.257813 8.644531 40 9.285156 40 10C40 12.199219 41.800781 14 44 14C46.199219 14 48 12.199219 48 10C48 9.285156 47.742188 8.644531 47.4375 7.9375C47.132813 7.230469 46.761719 6.496094 46.375 5.8125C45.601563 4.445313 44.84375 3.28125 44.84375 3.28125 Z M 10 4L16 4L16 27.84375C16.003906 28.234375 16.234375 28.589844 16.59375 28.75C19.769531 30.136719 22 33.300781 22 37C22 41.984375 17.984375 46 13 46C8.015625 46 4 41.984375 4 37C4 33.300781 6.230469 30.136719 9.40625 28.75C9.765625 28.589844 9.996094 28.234375 10 27.84375 Z M 44 5.78125C44.253906 6.191406 44.316406 6.234375 44.625 6.78125C44.988281 7.425781 45.367188 8.148438 45.625 8.75C45.882813 9.351563 46 9.886719 46 10C46 11.117188 45.117188 12 44 12C42.882813 12 42 11.117188 42 10C42 9.886719 42.117188 9.351563 42.375 8.75C42.632813 8.148438 43.011719 7.425781 43.375 6.78125C43.683594 6.234375 43.746094 6.191406 44 5.78125 Z M 12 14L12 32L14 32L14 14 Z M 13 32C10.238281 32 8 34.238281 8 37C8 39.761719 10.238281 42 13 42C15.761719 42 18 39.761719 18 37C18 34.238281 15.761719 32 13 32 Z M 34.5 14.53125L33.65625 15.78125C33.65625 15.78125 32.773438 17.097656 31.875 18.6875C31.425781 19.484375 30.976563 20.339844 30.625 21.15625C30.273438 21.972656 30 22.714844 30 23.5C30 25.972656 32.027344 28 34.5 28C36.972656 28 39 25.972656 39 23.5C39 22.714844 38.726563 21.972656 38.375 21.15625C38.023438 20.339844 37.574219 19.484375 37.125 18.6875C36.226563 17.097656 35.34375 15.78125 35.34375 15.78125 Z M 34.5 18.25C34.824219 18.761719 34.9375 18.914063 35.375 19.6875C35.800781 20.445313 36.226563 21.257813 36.53125 21.96875C36.835938 22.679688 37 23.320313 37 23.5C37 24.890625 35.890625 26 34.5 26C33.109375 26 32 24.890625 32 23.5C32 23.320313 32.164063 22.679688 32.46875 21.96875C32.773438 21.257813 33.199219 20.445313 33.625 19.6875C34.0625 18.914063 34.175781 18.761719 34.5 18.25 Z M 44 27L43.15625 28.25C43.15625 28.25 42.148438 29.78125 41.125 31.59375C40.613281 32.5 40.117188 33.480469 39.71875 34.40625C39.320313 35.332031 39 36.144531 39 37C39 39.75 41.25 42 44 42C46.75 42 49 39.75 49 37C49 36.144531 48.679688 35.332031 48.28125 34.40625C47.882813 33.480469 47.386719 32.5 46.875 31.59375C45.851563 29.78125 44.84375 28.25 44.84375 28.25 Z M 44 30.71875C44.378906 31.3125 44.566406 31.570313 45.125 32.5625C45.613281 33.429688 46.117188 34.367188 46.46875 35.1875C46.820313 36.007813 47 36.75 47 37C47 38.667969 45.667969 40 44 40C42.332031 40 41 38.667969 41 37C41 36.75 41.179688 36.007813 41.53125 35.1875C41.882813 34.367188 42.386719 33.429688 42.875 32.5625C43.433594 31.570313 43.621094 31.3125 44 30.71875Z" fill="#5B5B5B" />
</svg>