<?xml version="1.0" encoding="UTF-8"?>
<svg xmlns="http://www.w3.org/2000/svg" width="50pt" height="50pt"
     viewBox="0 0 50 50" version="1.1">
  <g id="surface1">
    <path style=" stroke:none;fill-rule:nonzero;fill:#047991;fill-opacity:1;"
          d="M 24.800781 1.042969 C 24.585938 1.042969 24.371094 1.113281 24.183594 1.246094 L 1.371094 19.058594 C 0.941406 19.394531 0.863281 20.019531 1.203125 20.457031 C 1.539063 20.882813 2.164063 20.960938 2.597656 20.625 L 3.96875 19.554688 L 3.96875 45.636719 C 3.96875 46.179688 4.414063 46.628906 4.960938 46.628906 L 18.847656 46.628906 L 18.847656 28.769531 L 30.753906 28.769531 L 30.753906 46.628906 L 44.644531 46.628906 C 45.1875 46.628906 45.636719 46.179688 45.636719 45.636719 L 45.636719 19.554688 L 47.003906 20.625 C 47.191406 20.761719 47.402344 20.832031 47.617188 20.832031 C 47.917969 20.832031 48.203125 20.707031 48.402344 20.457031 C 48.738281 20.019531 48.660156 19.394531 48.234375 19.058594 L 25.417969 1.246094 C 25.230469 1.113281 25.019531 1.042969 24.800781 1.042969 Z M 34.722656 4.960938 L 34.722656 6.003906 L 40.675781 10.644531 L 40.675781 4.960938 Z "/>
  </g>
</svg>
