<?xml version="1.0" encoding="UTF-8"?>
<svg xmlns="http://www.w3.org/2000/svg" xmlns:xlink="http://www.w3.org/1999/xlink" width="34pt" height="34pt" viewBox="0 0 34 34" version="1.1">
<g id="surface1">
<path style=" stroke:none;fill-rule:nonzero;fill:#FFFFFF;fill-opacity:1;" d="M 16.863281 1.347656 C 8.296875 1.347656 1.347656 8.296875 1.347656 16.863281 C 1.347656 25.433594 8.296875 32.382813 16.863281 32.382813 C 25.433594 32.382813 32.382813 25.433594 32.382813 16.863281 C 32.382813 8.296875 25.433594 1.347656 16.863281 1.347656 Z M 16.863281 7.421875 C 17.980469 7.421875 18.890625 8.328125 18.890625 9.445313 C 18.890625 10.5625 17.980469 11.46875 16.863281 11.46875 C 15.746094 11.46875 14.839844 10.5625 14.839844 9.445313 C 14.839844 8.328125 15.746094 7.421875 16.863281 7.421875 Z M 19.5625 25.636719 L 14.167969 25.636719 L 14.167969 24.285156 L 15.515625 24.285156 L 15.515625 15.515625 L 14.167969 15.515625 L 14.167969 14.167969 L 18.214844 14.167969 L 18.214844 24.285156 L 19.5625 24.285156 Z "/>
</g>
</svg>
