<?xml version="1.0" encoding="iso-8859-1"?>
<!-- Generator: Adobe Illustrator 19.0.0, SVG Export Plug-In . SVG Version: 6.00 Build 0)  -->
<svg version="1.1" id="Layer_1" xmlns="http://www.w3.org/2000/svg" xmlns:xlink="http://www.w3.org/1999/xlink" x="0px" y="0px"
	 viewBox="0 0 308.843 308.843" style="enable-background:new 0 0 308.843 308.843;" xml:space="preserve">
<g>
	<g>
		<g>
			<path d="M98.996,48.94h22.549c4.971,0,9-4.029,9-9s-4.029-9-9-9H98.996C44.409,30.94,0,75.349,0,129.935v22.55
				c0,4.971,4.029,9,9,9s9-4.029,9-9v-22.55C18,85.275,54.335,48.94,98.996,48.94z"/>
			<path d="M278.522,160.541c-3.424-16.248-12.104-31.041-24.749-42.031c-13.93-12.105-31.775-18.772-50.251-18.772
				c-6.403,0-12.645,0.793-18.63,2.28c-14.863-18.618-37.728-30.58-63.348-30.58c-44.689,0-81.047,36.357-81.047,81.047
				c0,12.032,2.656,23.449,7.379,33.726C36.644,195.766,29.5,209.987,29.5,225.854c0,28.7,23.349,52.049,52.049,52.049h163.97
				c34.917,0,63.324-28.407,63.324-63.324C308.844,192.326,297.337,172.015,278.522,160.541z M121.545,89.437
				c17.877,0,34.027,7.491,45.511,19.484c-16.618,8.965-29.665,23.944-36.019,42.518c-17.085,1.308-32.91,9.5-43.863,22.673
				c-1.873-0.205-3.752-0.308-5.624-0.308c-6.351,0-12.438,1.148-18.07,3.239c-3.207-7.551-4.982-15.851-4.982-24.559
				C58.498,117.721,86.78,89.437,121.545,89.437z M245.521,259.903H81.55c-18.774,0-34.049-15.274-34.049-34.049
				c0-18.775,15.274-34.049,34.049-34.049c2.508,0,5.043,0.285,7.533,0.847c3.592,0.811,7.315-0.649,9.401-3.685
				c8.475-12.343,22.451-19.712,37.389-19.712c0.467,0,0.929,0.019,1.391,0.035l0.23,0.008c4.239,0.153,8.052-2.714,9.063-6.861
				c6.42-26.318,29.845-44.7,56.966-44.7c28.812,0,53.744,21.45,57.995,49.896c0.428,2.858,2.201,5.338,4.77,6.665
				c15.146,7.829,24.557,23.264,24.557,40.281C290.845,239.57,270.513,259.903,245.521,259.903z"/>
		</g>
	</g>
</g>
<g>
</g>
<g>
</g>
<g>
</g>
<g>
</g>
<g>
</g>
<g>
</g>
<g>
</g>
<g>
</g>
<g>
</g>
<g>
</g>
<g>
</g>
<g>
</g>
<g>
</g>
<g>
</g>
<g>
</g>
</svg>
