<?xml version="1.0" encoding="UTF-8"?>
<svg xmlns="http://www.w3.org/2000/svg" xmlns:xlink="http://www.w3.org/1999/xlink" width="120pt" height="120pt" viewBox="0 0 120 120" version="1.1">
<g id="surface1">
<path style=" stroke:none;fill-rule:nonzero;fill:#047991;fill-opacity:1;" d="M 95.238281 7.144531 L 32.347656 7.144531 L 16.667969 22.824219 L 16.667969 107.144531 C 16.667969 109.765625 18.804688 111.90625 21.429688 111.90625 L 95.238281 111.90625 C 97.859375 111.90625 100 109.765625 100 107.144531 L 100 11.90625 C 100 9.28125 97.859375 7.144531 95.238281 7.144531 Z M 61.90625 16.667969 L 66.667969 16.667969 L 66.667969 33.332031 L 61.90625 33.332031 Z M 63.988281 87.191406 L 57.664063 89.480469 C 57.503906 89.398438 57.273438 89.230469 57.039063 89.136719 L 62.582031 86.679688 C 63.046875 86.847656 63.523438 86.941406 63.988281 87.191406 Z M 55.5625 88.632813 C 53.839844 88.125 51.8125 88.125 51.8125 88.125 L 52.519531 85.75 C 52.519531 85.75 55.792969 85.574219 59.226563 86.003906 Z M 50 16.667969 L 54.761719 16.667969 L 54.761719 33.332031 L 50 33.332031 Z M 38.09375 16.667969 L 42.855469 16.667969 L 42.855469 33.332031 L 38.09375 33.332031 Z M 26.191406 25.835938 L 30.953125 21.054688 L 30.953125 33.332031 L 26.191406 33.332031 Z M 40.664063 99.917969 C 39.257813 100 37.769531 99.917969 36.367188 99.917969 C 31.84375 99.917969 28.5625 99.664063 28.5625 99.664063 L 30.050781 95.425781 C 30.050781 95.425781 32.625 95.757813 34.261719 95.757813 C 35.824219 95.757813 40.347656 96.269531 40.347656 95.246094 C 40.347656 93.554688 32.859375 93.636719 32.859375 89.3125 C 32.859375 87.109375 37.070313 85.917969 40.652344 85.917969 C 44.328125 85.917969 50.019531 85.75 50.019531 85.75 L 49.246094 88.207031 C 49.246094 88.207031 41.910156 88.207031 40.976563 88.207031 C 39.957031 88.207031 37.304688 88.207031 37.304688 89.230469 C 37.304688 91.089844 46.820313 90.839844 46.820313 95.582031 C 46.820313 98.808594 43.9375 99.664063 40.664063 99.917969 Z M 68.984375 92.195313 C 67.105469 99.917969 47.917969 100 47.917969 100 L 49.710938 94.402344 C 49.710938 94.402344 57.355469 94.066406 58.210938 91.183594 C 58.285156 90.839844 58.285156 90.585938 58.210938 90.242188 L 65.933594 88.039063 C 68.042969 89.230469 69.375 90.753906 68.984375 92.195313 Z M 78.570313 33.332031 L 73.808594 33.332031 L 73.808594 16.667969 L 78.570313 16.667969 Z M 90.476563 33.332031 L 85.714844 33.332031 L 85.714844 16.667969 L 90.476563 16.667969 Z "/>
</g>
</svg>
