<?xml version="1.0" encoding="UTF-8"?>
<svg xmlns="http://www.w3.org/2000/svg" xmlns:xlink="http://www.w3.org/1999/xlink" width="60pt" height="60pt" viewBox="0 0 60 60" version="1.1">
<g id="surface1">
<path style=" stroke:none;fill-rule:nonzero;fill:#047991;fill-opacity:1;" d="M 29.761719 0 C 27.9375 0 26.203125 0.394531 24.851563 1.375 C 23.496094 2.359375 22.617188 3.984375 22.617188 5.953125 L 22.617188 11.53125 C 22.550781 11.765625 22.550781 12.007813 22.617188 12.238281 L 22.617188 32.960938 C 18.367188 35.433594 15.476563 39.972656 15.476563 45.238281 C 15.476563 53.117188 21.882813 59.523438 29.761719 59.523438 C 37.640625 59.523438 44.046875 53.117188 44.046875 45.238281 C 44.046875 39.972656 41.15625 35.433594 36.90625 32.960938 L 36.90625 32.144531 L 40.476563 32.144531 C 40.902344 32.148438 41.304688 31.925781 41.523438 31.550781 C 41.738281 31.179688 41.738281 30.722656 41.523438 30.351563 C 41.304688 29.980469 40.902344 29.757813 40.476563 29.761719 L 36.90625 29.761719 L 36.90625 27.382813 L 40.476563 27.382813 C 40.902344 27.386719 41.304688 27.164063 41.523438 26.789063 C 41.738281 26.417969 41.738281 25.960938 41.523438 25.589844 C 41.304688 25.21875 40.902344 24.996094 40.476563 25 L 36.90625 25 L 36.90625 22.617188 L 40.476563 22.617188 C 40.902344 22.625 41.304688 22.402344 41.523438 22.027344 C 41.738281 21.65625 41.738281 21.199219 41.523438 20.828125 C 41.304688 20.457031 40.902344 20.234375 40.476563 20.238281 L 36.90625 20.238281 L 36.90625 17.855469 L 40.476563 17.855469 C 40.902344 17.863281 41.304688 17.636719 41.523438 17.265625 C 41.738281 16.894531 41.738281 16.4375 41.523438 16.066406 C 41.304688 15.695313 40.902344 15.472656 40.476563 15.476563 L 36.90625 15.476563 L 36.90625 13.09375 L 40.476563 13.09375 C 40.902344 13.101563 41.304688 12.875 41.523438 12.503906 C 41.738281 12.132813 41.738281 11.675781 41.523438 11.304688 C 41.304688 10.933594 40.902344 10.710938 40.476563 10.714844 L 36.90625 10.714844 L 36.90625 5.953125 C 36.90625 3.984375 36.027344 2.359375 34.671875 1.375 C 33.320313 0.394531 31.585938 0 29.761719 0 Z M 29.761719 2.382813 C 31.226563 2.382813 32.460938 2.734375 33.257813 3.3125 C 34.058594 3.886719 34.523438 4.632813 34.523438 5.953125 L 34.523438 10.714844 L 25 10.714844 L 25 5.953125 C 25 4.632813 25.464844 3.886719 26.265625 3.3125 C 27.066406 2.734375 28.296875 2.382813 29.761719 2.382813 Z M 25 13.09375 L 34.523438 13.09375 L 34.523438 16.292969 C 34.453125 16.527344 34.453125 16.769531 34.523438 17 L 34.523438 20.871094 C 34.367188 21.199219 34.367188 21.582031 34.523438 21.914063 L 34.523438 25.632813 C 34.367188 25.960938 34.367188 26.34375 34.523438 26.675781 L 34.523438 30.394531 C 34.367188 30.722656 34.367188 31.105469 34.523438 31.4375 L 34.523438 33.59375 C 34.527344 34.03125 34.769531 34.429688 35.15625 34.636719 C 39.007813 36.605469 41.667969 40.605469 41.667969 45.238281 C 41.667969 51.828125 36.351563 57.144531 29.761719 57.144531 C 23.171875 57.144531 17.855469 51.828125 17.855469 45.238281 C 17.855469 40.605469 20.515625 36.605469 24.367188 34.636719 C 24.753906 34.429688 24.996094 34.03125 25 33.59375 Z "/>
</g>
</svg>
