<?xml version="1.0" encoding="UTF-8"?>
<svg xmlns="http://www.w3.org/2000/svg" width="34pt" height="34pt"
     viewBox="0 0 34 34" version="1.1">
  <g id="surface1">
    <path style=" stroke:none;fill-rule:nonzero;fill:#FFFFFF;fill-opacity:1;"
          d="M 16.863281 2.023438 C 16.121094 2.023438 15.515625 2.628906 15.515625 3.371094 C 15.515625 4.117188 16.121094 4.722656 16.863281 4.722656 C 17.609375 4.722656 18.214844 4.117188 18.214844 3.371094 C 18.214844 2.628906 17.609375 2.023438 16.863281 2.023438 Z M 16.863281 6.070313 C 16.121094 6.070313 15.515625 6.675781 15.515625 7.421875 C 15.515625 8.167969 16.121094 8.769531 16.863281 8.769531 C 17.609375 8.769531 18.214844 8.167969 18.214844 7.421875 C 18.214844 6.675781 17.609375 6.070313 16.863281 6.070313 Z M 16.71875 10.097656 C 16.023438 10.175781 15.5 10.769531 15.515625 11.46875 L 15.515625 23.0625 L 13.089844 20.636719 C 12.839844 20.371094 12.488281 20.21875 12.121094 20.21875 C 11.574219 20.222656 11.082031 20.558594 10.878906 21.066406 C 10.675781 21.574219 10.800781 22.152344 11.195313 22.535156 L 15.746094 27.070313 C 15.765625 27.105469 15.789063 27.140625 15.8125 27.175781 L 15.917969 27.257813 C 16.203125 27.546875 16.605469 27.691406 17.011719 27.652344 C 17.414063 27.609375 17.78125 27.386719 18.003906 27.046875 L 22.535156 22.535156 C 22.9375 22.210938 23.121094 21.6875 23.003906 21.183594 C 22.890625 20.679688 22.496094 20.285156 21.992188 20.167969 C 21.488281 20.054688 20.960938 20.234375 20.636719 20.636719 L 18.214844 23.0625 L 18.214844 11.46875 C 18.21875 11.101563 18.078125 10.75 17.820313 10.492188 C 17.5625 10.234375 17.210938 10.09375 16.84375 10.097656 C 16.800781 10.09375 16.757813 10.09375 16.71875 10.097656 Z M 1.347656 22.261719 L 1.347656 30.292969 C 1.347656 31.429688 2.300781 32.382813 3.4375 32.382813 L 30.292969 32.382813 C 31.429688 32.382813 32.382813 31.429688 32.382813 30.292969 L 32.382813 22.261719 L 29.683594 22.261719 L 29.683594 29.683594 L 4.046875 29.683594 L 4.046875 22.261719 Z "/>
  </g>
</svg>
