<?xml version="1.0" encoding="UTF-8"?>
<svg xmlns="http://www.w3.org/2000/svg" width="120pt" height="120pt"
     viewBox="0 0 120 120" version="1.1">
  <g id="surface1">
    <path style=" stroke:none;fill-rule:nonzero;fill:#047991;fill-opacity:1;"
          d="M 73.652344 77.445313 C 73.296875 73.605469 73.4375 70.925781 73.4375 67.421875 C 75.175781 66.507813 78.292969 60.695313 78.8125 55.785156 C 80.179688 55.671875 82.339844 54.34375 82.96875 49.078125 C 83.304688 46.25 81.957031 44.660156 81.128906 44.160156 C 83.351563 37.472656 87.972656 16.777344 72.589844 14.640625 C 71 11.859375 66.945313 10.453125 61.679688 10.453125 C 40.597656 10.84375 38.058594 26.375 42.679688 44.160156 C 41.851563 44.660156 40.503906 46.25 40.839844 49.078125 C 41.480469 54.34375 43.628906 55.671875 44.996094 55.785156 C 45.515625 60.695313 48.753906 66.507813 50.503906 67.421875 C 50.503906 70.925781 50.632813 73.605469 50.277344 77.445313 C 46.113281 88.664063 17.96875 85.507813 16.667969 107.144531 L 107.144531 107.144531 C 105.839844 85.507813 77.816406 88.664063 73.652344 77.445313 Z "/>
  </g>
</svg>
