<?xml version="1.0" encoding="UTF-8"?>
<svg xmlns="http://www.w3.org/2000/svg" width="34pt" height="34pt"
     viewBox="0 0 34 34" version="1.1">
  <g id="surface1">
    <path style=" stroke:none;fill-rule:nonzero;fill:#FFFFFF;fill-opacity:1;"
          d="M 18.53125 2.367188 C 18.257813 2.367188 18.015625 2.53125 17.910156 2.785156 C 17.804688 3.039063 17.867188 3.332031 18.0625 3.523438 C 20.96875 6.425781 20.96875 11.113281 18.0625 14.019531 C 17.886719 14.1875 17.816406 14.4375 17.878906 14.675781 C 17.941406 14.910156 18.125 15.097656 18.363281 15.15625 C 18.597656 15.21875 18.847656 15.148438 19.019531 14.96875 C 22.4375 11.550781 22.4375 5.988281 19.019531 2.570313 C 18.890625 2.4375 18.71875 2.367188 18.53125 2.367188 Z M 16.625 4.273438 C 16.351563 4.273438 16.105469 4.4375 16 4.691406 C 15.898438 4.949219 15.957031 5.238281 16.15625 5.429688 C 18.007813 7.28125 18.007813 10.257813 16.15625 12.109375 C 15.980469 12.277344 15.910156 12.53125 15.972656 12.765625 C 16.03125 13 16.21875 13.1875 16.453125 13.246094 C 16.6875 13.308594 16.941406 13.238281 17.109375 13.0625 C 19.476563 10.695313 19.476563 6.84375 17.109375 4.476563 C 16.984375 4.34375 16.808594 4.273438 16.625 4.273438 Z M 14.71875 6.183594 C 14.441406 6.183594 14.199219 6.347656 14.09375 6.601563 C 13.988281 6.855469 14.050781 7.148438 14.25 7.339844 C 15.042969 8.136719 15.042969 9.40625 14.25 10.199219 C 14.070313 10.371094 14 10.621094 14.0625 10.855469 C 14.125 11.09375 14.308594 11.277344 14.546875 11.339844 C 14.78125 11.402344 15.035156 11.332031 15.203125 11.15625 C 16.515625 9.84375 16.515625 7.699219 15.203125 6.386719 C 15.074219 6.253906 14.902344 6.183594 14.71875 6.183594 Z M 6.746094 8.09375 C 6.375 8.09375 6.070313 8.398438 6.070313 8.769531 L 6.070313 21.585938 L 7.421875 21.585938 L 7.421875 8.769531 C 7.421875 8.398438 7.117188 8.09375 6.746094 8.09375 Z M 12.144531 8.09375 C 11.769531 8.09375 11.46875 8.398438 11.46875 8.769531 L 11.46875 21.585938 L 12.816406 21.585938 L 12.816406 8.769531 C 12.816406 8.398438 12.515625 8.09375 12.144531 8.09375 Z M 4.722656 22.9375 C 3.609375 22.9375 2.699219 23.84375 2.699219 24.960938 L 2.699219 29.007813 C 2.699219 30.121094 3.609375 31.03125 4.722656 31.03125 L 29.007813 31.03125 C 30.121094 31.03125 31.03125 30.121094 31.03125 29.007813 L 31.03125 24.960938 C 31.03125 23.84375 30.121094 22.9375 29.007813 22.9375 Z M 6.746094 26.308594 C 7.117188 26.308594 7.421875 26.613281 7.421875 26.984375 C 7.421875 27.355469 7.117188 27.660156 6.746094 27.660156 C 6.375 27.660156 6.070313 27.355469 6.070313 26.984375 C 6.070313 26.613281 6.375 26.308594 6.746094 26.308594 Z M 9.445313 26.308594 C 9.816406 26.308594 10.117188 26.613281 10.117188 26.984375 C 10.117188 27.355469 9.816406 27.660156 9.445313 27.660156 C 9.074219 27.660156 8.769531 27.355469 8.769531 26.984375 C 8.769531 26.613281 9.074219 26.308594 9.445313 26.308594 Z M 12.144531 26.308594 C 12.515625 26.308594 12.816406 26.613281 12.816406 26.984375 C 12.816406 27.355469 12.515625 27.660156 12.144531 27.660156 C 11.769531 27.660156 11.46875 27.355469 11.46875 26.984375 C 11.46875 26.613281 11.769531 26.308594 12.144531 26.308594 Z M 14.839844 26.308594 C 15.210938 26.308594 15.515625 26.613281 15.515625 26.984375 C 15.515625 27.355469 15.210938 27.660156 14.839844 27.660156 C 14.46875 27.660156 14.167969 27.355469 14.167969 26.984375 C 14.167969 26.613281 14.46875 26.308594 14.839844 26.308594 Z M 17.539063 26.308594 C 17.910156 26.308594 18.214844 26.613281 18.214844 26.984375 C 18.214844 27.355469 17.910156 27.660156 17.539063 27.660156 C 17.167969 27.660156 16.863281 27.355469 16.863281 26.984375 C 16.863281 26.613281 17.167969 26.308594 17.539063 26.308594 Z "/>
  </g>
</svg>
