<?xml version="1.0" encoding="UTF-8"?>
<svg xmlns="http://www.w3.org/2000/svg" xmlns:xlink="http://www.w3.org/1999/xlink" width="50pt" height="50pt" viewBox="0 0 50 50" version="1.1">
<g id="surface1">
<path style=" stroke:none;fill-rule:nonzero;fill:#047991;fill-opacity:1;" d="M 24.800781 6.945313 C 15.816406 6.945313 7.28125 10.390625 0.773438 16.640625 L 0.0625 17.328125 L 5.550781 23.046875 L 6.269531 22.359375 C 11.289063 17.539063 17.871094 14.882813 24.800781 14.882813 C 31.730469 14.882813 38.316406 17.539063 43.335938 22.359375 L 44.054688 23.046875 L 49.546875 17.328125 L 48.828125 16.636719 C 42.320313 10.386719 33.789063 6.945313 24.800781 6.945313 Z M 24.800781 18.847656 C 18.894531 18.847656 13.289063 21.113281 9.015625 25.21875 L 8.296875 25.90625 L 13.8125 31.652344 L 14.527344 30.964844 C 17.328125 28.269531 20.976563 26.785156 24.800781 26.785156 C 28.625 26.785156 32.277344 28.269531 35.074219 30.964844 L 35.792969 31.652344 L 41.304688 25.90625 L 40.59375 25.21875 C 36.316406 21.113281 30.707031 18.847656 24.800781 18.847656 Z M 24.800781 30.753906 C 21.980469 30.753906 19.296875 31.835938 17.253906 33.804688 L 16.539063 34.488281 L 24.800781 43.097656 L 33.0625 34.488281 L 32.351563 33.804688 C 30.304688 31.835938 27.621094 30.753906 24.800781 30.753906 Z "/>
</g>
</svg>
