<?xml version="1.0" encoding="UTF-8"?>
<svg xmlns="http://www.w3.org/2000/svg" width="480pt" height="480pt"
     viewBox="0 0 480 480" version="1.1">
  <g id="surface1">
    <path style=" stroke:none;fill-rule:nonzero;fill:#047991;fill-opacity:1;"
          d="M 278.597656 36.820313 C 272.183594 36.820313 266.386719 40.707031 263.980469 46.691406 C 261.574219 52.671875 262.992188 59.457031 267.621094 63.960938 C 310.917969 107.257813 310.917969 176.953125 267.621094 220.25 C 263.488281 224.199219 261.820313 230.121094 263.300781 235.609375 C 264.71875 241.160156 269.039063 245.476563 274.589844 246.894531 C 280.078125 248.375 286 246.710938 289.945313 242.578125 C 345.332031 187.191406 345.332031 97.019531 289.945313 41.632813 C 286.984375 38.546875 282.914063 36.820313 278.597656 36.820313 Z M 78.699219 47.121094 C 70.003906 47.308594 63.035156 54.460938 63.15625 63.15625 L 63.15625 284.210938 C 45.703125 284.210938 31.578125 298.335938 31.578125 315.789063 L 31.578125 378.949219 C 31.578125 396.402344 45.703125 410.527344 63.15625 410.527344 L 410.527344 410.527344 C 427.980469 410.527344 442.105469 396.402344 442.105469 378.949219 L 442.105469 315.789063 C 442.105469 298.335938 427.980469 284.210938 410.527344 284.210938 L 189.472656 284.210938 L 189.472656 142.105469 C 189.535156 137.847656 187.871094 133.71875 184.847656 130.695313 C 181.824219 127.671875 177.691406 126.007813 173.4375 126.070313 C 164.742188 126.253906 157.769531 133.410156 157.894531 142.105469 L 157.894531 284.210938 L 94.738281 284.210938 L 94.738281 63.15625 C 94.796875 58.902344 93.132813 54.769531 90.109375 51.746094 C 87.089844 48.726563 82.957031 47.058594 78.699219 47.121094 Z M 233.941406 81.539063 C 227.527344 81.539063 221.792969 85.421875 219.324219 91.34375 C 216.921875 97.328125 218.339844 104.113281 222.964844 108.613281 C 241.589844 127.242188 241.589844 156.96875 222.964844 175.597656 C 218.832031 179.542969 217.167969 185.464844 218.648438 190.953125 C 220.066406 196.503906 224.382813 200.824219 229.933594 202.242188 C 235.421875 203.722656 241.34375 202.054688 245.292969 197.921875 C 276.007813 167.207031 276.007813 117.003906 245.292969 86.285156 C 242.332031 83.203125 238.261719 81.539063 233.941406 81.539063 Z M 78.949219 331.578125 C 87.644531 331.578125 94.738281 338.671875 94.738281 347.367188 C 94.738281 356.066406 87.644531 363.15625 78.949219 363.15625 C 70.25 363.15625 63.15625 356.066406 63.15625 347.367188 C 63.15625 338.671875 70.25 331.578125 78.949219 331.578125 Z M 142.105469 331.578125 C 150.800781 331.578125 157.894531 338.671875 157.894531 347.367188 C 157.894531 356.066406 150.800781 363.15625 142.105469 363.15625 C 133.410156 363.15625 126.316406 356.066406 126.316406 347.367188 C 126.316406 338.671875 133.410156 331.578125 142.105469 331.578125 Z "/>
  </g>
</svg>
