<?xml version="1.0" encoding="UTF-8"?>
<svg xmlns="http://www.w3.org/2000/svg" width="120pt" height="120pt"
     viewBox="0 0 120 120" version="1.1">
  <g id="surface1">
    <path style=" stroke:none;fill-rule:nonzero;fill:#047991;fill-opacity:1;"
          d="M 37.277344 0.667969 C 36.589844 0.714844 35.9375 0.894531 35.269531 1.191406 C 32.597656 2.390625 31.492188 5.226563 31.101563 8.40625 C 30.710938 11.589844 30.933594 15.496094 31.695313 20.089844 C 33.195313 29.121094 36.757813 40.738281 41.890625 53.347656 C 34.347656 64.667969 28.570313 75.308594 25.296875 83.855469 C 23.632813 88.207031 22.582031 92.046875 22.320313 95.238281 C 22.0625 98.429688 22.542969 101.414063 24.925781 103.125 C 27.296875 104.835938 30.320313 104.378906 33.257813 103.125 C 36.199219 101.871094 39.492188 99.675781 43.082031 96.726563 C 45.453125 94.773438 47.992188 92.476563 50.59375 89.882813 L 48.363281 116.445313 C 48.289063 117.300781 48.679688 118.125 49.386719 118.621094 C 50.09375 119.101563 51.003906 119.179688 51.777344 118.804688 C 52.546875 118.433594 53.070313 117.671875 53.125 116.816406 L 55.878906 84.300781 C 58.195313 81.761719 60.566406 78.953125 62.945313 76.042969 L 65.921875 116.816406 C 65.976563 117.671875 66.5 118.433594 67.269531 118.804688 C 68.042969 119.179688 68.953125 119.101563 69.660156 118.621094 C 70.367188 118.125 70.757813 117.300781 70.683594 116.445313 L 67.410156 71.355469 C 80.730469 72.171875 92.671875 71.808594 101.5625 70.386719 C 106.15625 69.652344 109.980469 68.636719 112.871094 67.261719 C 115.765625 65.886719 118.082031 63.996094 118.378906 61.085938 C 118.675781 58.164063 116.769531 55.792969 114.210938 53.867188 C 111.652344 51.945313 108.082031 50.222656 103.71875 48.585938 C 95.144531 45.367188 83.359375 42.558594 69.867188 40.699219 C 63.839844 28.507813 57.476563 18.183594 51.710938 11.085938 C 48.78125 7.476563 46.011719 4.640625 43.378906 2.828125 C 42.058594 1.914063 40.738281 1.238281 39.359375 0.894531 C 38.671875 0.714844 37.964844 0.625 37.277344 0.667969 Z M 37.648438 5.429688 C 38.214844 5.441406 39.191406 5.730469 40.699219 6.769531 C 42.707031 8.15625 45.238281 10.667969 47.992188 14.0625 C 52.59375 19.726563 57.785156 28.246094 62.871094 37.871094 C 61.765625 37.65625 60.695313 37.351563 59.523438 37.351563 C 53.03125 37.351563 47.421875 40.914063 44.34375 46.132813 C 40.53125 35.992188 37.648438 26.515625 36.457031 19.34375 C 35.742188 15.019531 35.566406 11.429688 35.863281 9.003906 C 36.160156 6.574219 36.839844 5.664063 37.203125 5.507813 C 37.296875 5.46875 37.460938 5.429688 37.648438 5.429688 Z M 59.523438 42.113281 C 62.203125 42.113281 64.675781 42.96875 66.742188 44.34375 C 66.816406 44.402344 66.890625 44.449219 66.964844 44.492188 C 67.09375 44.632813 67.242188 44.765625 67.410156 44.867188 C 70.515625 47.257813 72.542969 50.921875 72.542969 55.132813 C 72.542969 60.285156 69.503906 64.621094 65.179688 66.742188 C 64.964844 66.835938 64.761719 66.964844 64.582031 67.113281 C 64.535156 67.132813 64.480469 67.160156 64.433594 67.1875 C 62.910156 67.8125 61.253906 68.15625 59.523438 68.15625 C 52.316406 68.15625 46.503906 62.34375 46.503906 55.132813 C 46.503906 55.117188 46.605469 54.84375 46.652344 54.242188 C 46.652344 54.167969 46.652344 54.09375 46.652344 54.019531 C 46.652344 53.945313 46.652344 53.867188 46.652344 53.792969 C 46.6875 53.671875 46.707031 53.554688 46.726563 53.421875 C 47.5625 47.023438 52.890625 42.113281 59.523438 42.113281 Z M 59.523438 45.238281 C 54.289063 45.238281 50 49.527344 50 54.761719 C 50 60 54.289063 64.285156 59.523438 64.285156 C 64.761719 64.285156 69.046875 60 69.046875 54.761719 C 69.046875 49.527344 64.761719 45.238281 59.523438 45.238281 Z M 74.777344 46.429688 C 85.527344 48.195313 95.246094 50.484375 102.082031 53.050781 C 106.183594 54.59375 109.355469 56.195313 111.308594 57.664063 C 113.261719 59.132813 113.652344 60.175781 113.617188 60.566406 C 113.578125 60.957031 112.992188 61.894531 110.789063 62.945313 C 108.585938 63.996094 105.144531 65.011719 100.820313 65.699219 C 93.601563 66.851563 83.660156 67.074219 72.769531 66.667969 C 75.503906 63.550781 77.304688 59.597656 77.304688 55.132813 C 77.304688 51.914063 76.285156 49.023438 74.777344 46.429688 Z M 59.523438 50 C 62.183594 50 64.285156 52.101563 64.285156 54.761719 C 64.285156 57.421875 62.183594 59.523438 59.523438 59.523438 C 56.863281 59.523438 54.761719 57.421875 54.761719 54.761719 C 54.761719 52.101563 56.863281 50 59.523438 50 Z M 42.929688 60.789063 C 45.292969 67.691406 51.582031 72.703125 59.226563 72.84375 C 52.351563 81.203125 45.636719 88.476563 40.03125 93.082031 C 36.652344 95.851563 33.640625 97.777344 31.398438 98.734375 C 29.15625 99.691406 28.070313 99.488281 27.753906 99.257813 C 27.4375 99.023438 26.886719 98.046875 27.082031 95.609375 C 27.277344 93.171875 28.199219 89.65625 29.761719 85.566406 C 32.375 78.75 37.128906 70.015625 42.929688 60.789063 Z "/>
  </g>
</svg>
