<svg xmlns="http://www.w3.org/2000/svg" width="172.736" height="48.313" viewBox="0 0 172.736 48.313">
  <path id="Trazado_218" data-name="Trazado 218"
        d="M29.817,0l-3.6-10.411A12.944,12.944,0,0,0,23.5-15.229a4.951,4.951,0,0,0-3.622-1.752h-.573V0H4.75V-48.313H24.089q10.141,0,14.976,3.319T43.9-35.039a12.6,12.6,0,0,1-2.813,8.355A16.033,16.033,0,0,1,32.714-21.8v.135a11.7,11.7,0,0,1,5.1,3.066,18.966,18.966,0,0,1,3.656,6.3L46.225,0ZM28.436-32.984a5.059,5.059,0,0,0-1.482-3.841A6.544,6.544,0,0,0,22.3-38.24h-3v11.051h2.628A6.673,6.673,0,0,0,26.65-28.84,5.406,5.406,0,0,0,28.436-32.984Zm47.808-3.942V0H61.622V-36.926H48.111V-48.313H89.922v11.388ZM95.717,0V-48.313H125.8v11.388H110.272v7.042H124.86V-18.5H110.272v7.109h16.644V0Zm64.654,0-6-13.241a9.246,9.246,0,0,1-.758-2.443q-.185-1.2-.286-1.971h-.135q-.2.809-.472,2.123a14.622,14.622,0,0,1-.775,2.561L146.355,0H129.038l14.487-24.089L130.352-48.313h17.587l4.683,12.769a31.1,31.1,0,0,1,1.179,4.717h.135a19.145,19.145,0,0,1,1.247-4.784l5.458-12.7h16.206L163.269-24.359,177.486,0Z"
        transform="translate(-4.75 48.313)" fill="#313b45"/>
</svg>
