<svg xmlns="http://www.w3.org/2000/svg" width="893.635" height="110.345" viewBox="0 0 893.635 110.345">
  <path id="Trazado_263" data-name="Trazado 263"
        d="M143.84-101.5,73.225,8.845,2.9-101.5H32.045L67.57-41.9A76.505,76.505,0,0,1,73.08-30.6a43.582,43.582,0,0,1,2.755-5.655l3.19-5.51,35.67-59.74ZM252.155-77.575h-58.87a52.318,52.318,0,0,0-12.76,1.305,16.961,16.961,0,0,0-8.12,4.423,17.841,17.841,0,0,0-4.35,8.338,54.9,54.9,0,0,0-1.305,13.05v26.39h58.87A53.743,53.743,0,0,0,238.09-25.3a17.272,17.272,0,0,0,8.193-4.278,17.5,17.5,0,0,0,4.5-8.265,52.129,52.129,0,0,0,1.377-13.05ZM276.8-101.5v51.04A61.791,61.791,0,0,1,273.4-29.218a43.316,43.316,0,0,1-9.86,15.878A42.07,42.07,0,0,1,247.66-3.408,62.877,62.877,0,0,1,226.2,0H142.1V-50.9a60.874,60.874,0,0,1,3.408-20.953A43.527,43.527,0,0,1,155.44-87.8a43.811,43.811,0,0,1,15.95-10.15,60.548,60.548,0,0,1,21.46-3.553ZM331.47-62.06h57.71q7.54,0,11.745-3.988t5.365-11.527H320.015V0h-24.65V-101.5h134.85v19.43q0,38.425-37.41,42.34L431.375,0h-29.87l-39.15-39.3H331.47ZM569.705-77.575h-46.69V0h-24.65V-77.575h-17.11q-16.1,0-17.4,15.515H440.51q3.19-39.44,44.66-39.44h84.535ZM607.985,0h-24.65V-101.5h24.65Zm145,0H626.255V-50.9a62.412,62.412,0,0,1,3.408-21.315,43.217,43.217,0,0,1,9.86-15.95A42.07,42.07,0,0,1,655.4-98.093a63.346,63.346,0,0,1,21.605-3.408h75.98v23.925H677.44q-26.535,0-26.535,27.115v26.39h102.08Zm143.55-77.575H792.425V-62.06h101.5V-39.3H793.73a20.55,20.55,0,0,0,8.12,11.31q5.8,3.915,17.11,3.915h77.575V0h-78.01a59.661,59.661,0,0,1-21.17-3.553A45.027,45.027,0,0,1,781.333-13.63a43.139,43.139,0,0,1-10.078-15.877,59.726,59.726,0,0,1-3.48-20.953V-101.5h128.76Z"
        transform="translate(-2.9 101.5)" fill="#eee"/>
</svg>
