<?xml version="1.0" encoding="UTF-8"?>
<svg xmlns="http://www.w3.org/2000/svg" xmlns:xlink="http://www.w3.org/1999/xlink" width="120pt" height="120pt" viewBox="0 0 120 120" version="1.1">
<g id="surface1">
<path style=" stroke:none;fill-rule:nonzero;fill:#047991;fill-opacity:1;" d="M 59.523438 4.761719 C 29.277344 4.761719 4.761719 29.277344 4.761719 59.523438 C 4.761719 89.769531 29.277344 114.285156 59.523438 114.285156 C 89.769531 114.285156 114.285156 89.769531 114.285156 59.523438 C 114.285156 29.277344 89.769531 4.761719 59.523438 4.761719 Z M 59.523438 26.191406 C 63.46875 26.191406 66.667969 29.390625 66.667969 33.332031 C 66.667969 37.277344 63.46875 40.476563 59.523438 40.476563 C 55.582031 40.476563 52.382813 37.277344 52.382813 33.332031 C 52.382813 29.390625 55.582031 26.191406 59.523438 26.191406 Z M 69.046875 90.476563 L 50 90.476563 L 50 85.714844 L 54.761719 85.714844 L 54.761719 54.761719 L 50 54.761719 L 50 50 L 64.285156 50 L 64.285156 85.714844 L 69.046875 85.714844 Z "/>
</g>
</svg>
