<?xml version="1.0" encoding="UTF-8"?>
<svg xmlns="http://www.w3.org/2000/svg" xmlns:xlink="http://www.w3.org/1999/xlink" width="120pt" height="120pt" viewBox="0 0 120 120" version="1.1">
<g id="surface1">
<path style=" stroke:none;fill-rule:nonzero;fill:#047991;fill-opacity:1;" d="M 47.46875 30.878906 C 46.222656 30.925781 45.050781 31.464844 44.195313 32.367188 L 20.683594 56.175781 L 17.410156 59.523438 L 20.683594 62.871094 L 44.195313 86.679688 C 46.046875 88.570313 49.078125 88.605469 50.96875 86.757813 C 52.855469 84.90625 52.890625 81.875 51.042969 79.984375 L 35.492188 64.285156 L 95.238281 64.285156 C 96.957031 64.3125 98.550781 63.410156 99.414063 61.921875 C 100.289063 60.445313 100.289063 58.601563 99.414063 57.125 C 98.550781 55.636719 96.957031 54.734375 95.238281 54.761719 L 35.492188 54.761719 L 51.042969 39.0625 C 52.472656 37.675781 52.902344 35.554688 52.101563 33.722656 C 51.300781 31.902344 49.460938 30.765625 47.46875 30.878906 Z "/>
</g>
</svg>
