<?xml version="1.0" encoding="UTF-8"?>
<svg xmlns="http://www.w3.org/2000/svg" xmlns:xlink="http://www.w3.org/1999/xlink" width="120pt" height="120pt" viewBox="0 0 120 120" version="1.1">
<g id="surface1">
<path style=" stroke:none;fill-rule:nonzero;fill:#047991;fill-opacity:1;" d="M 112.285156 50.53125 L 98.214844 48.222656 C 97.386719 45.40625 96.261719 42.691406 94.855469 40.121094 L 103.070313 28.414063 C 103.730469 27.464844 103.617188 26.179688 102.800781 25.363281 L 93.546875 16.109375 C 92.71875 15.28125 91.414063 15.167969 90.46875 15.859375 L 78.933594 24.144531 C 76.347656 22.710938 73.605469 21.578125 70.769531 20.75 L 68.3125 6.734375 C 68.109375 5.597656 67.121094 4.761719 65.96875 4.761719 L 52.875 4.761719 C 51.703125 4.761719 50.707031 5.609375 50.519531 6.761719 L 48.242188 20.695313 C 45.386719 21.523438 42.644531 22.648438 40.058594 24.0625 L 28.5625 15.847656 C 27.613281 15.167969 26.320313 15.273438 25.492188 16.097656 L 16.238281 25.351563 C 15.421875 26.171875 15.308594 27.457031 15.96875 28.402344 L 24.0625 39.972656 C 22.628906 42.585938 21.476563 45.351563 20.636719 48.214844 L 6.761719 50.53125 C 5.609375 50.714844 4.769531 51.710938 4.769531 52.875 L 4.769531 65.96875 C 4.769531 67.121094 5.597656 68.117188 6.734375 68.3125 L 20.609375 70.777344 C 21.445313 73.640625 22.589844 76.40625 24.042969 79.019531 L 15.847656 90.476563 C 15.167969 91.425781 15.273438 92.71875 16.097656 93.546875 L 25.351563 102.808594 C 26.171875 103.628906 27.457031 103.738281 28.402344 103.078125 L 40 94.960938 C 42.605469 96.382813 45.351563 97.527344 48.203125 98.34375 L 50.53125 112.296875 C 50.714844 113.449219 51.710938 114.285156 52.875 114.285156 L 65.96875 114.285156 C 67.121094 114.285156 68.109375 113.457031 68.3125 112.324219 L 70.796875 98.296875 C 73.652344 97.460938 76.386719 96.316406 78.960938 94.882813 L 90.644531 103.070313 C 91.59375 103.738281 92.875 103.628906 93.695313 102.808594 L 102.949219 93.546875 C 103.777344 92.71875 103.886719 91.414063 103.199219 90.46875 L 94.875 78.90625 C 96.28125 76.328125 97.40625 73.613281 98.222656 70.785156 L 112.3125 68.3125 C 113.449219 68.117188 114.277344 67.121094 114.277344 65.96875 L 114.277344 52.875 C 114.285156 51.710938 113.4375 50.714844 112.285156 50.53125 Z M 59.523438 76.191406 C 50.316406 76.191406 42.855469 68.730469 42.855469 59.523438 C 42.855469 50.316406 50.316406 42.855469 59.523438 42.855469 C 68.730469 42.855469 76.191406 50.316406 76.191406 59.523438 C 76.191406 68.730469 68.730469 76.191406 59.523438 76.191406 Z "/>
</g>
</svg>
