<?xml version="1.0" encoding="UTF-8"?>
<svg xmlns="http://www.w3.org/2000/svg" xmlns:xlink="http://www.w3.org/1999/xlink" width="120pt" height="120pt" viewBox="0 0 120 120" version="1.1">
<g id="surface1">
<path style=" stroke:none;fill-rule:nonzero;fill:#047991;fill-opacity:1;" d="M 59.523438 4.761719 C 58.210938 4.761719 57.144531 5.832031 57.144531 7.144531 L 57.144531 16.667969 L 61.90625 16.667969 L 61.90625 7.144531 C 61.90625 5.832031 60.835938 4.761719 59.523438 4.761719 Z M 61.90625 16.667969 L 61.90625 56.175781 L 79.242188 38.765625 C 80.171875 37.835938 81.734375 37.835938 82.664063 38.765625 C 83.59375 39.695313 83.59375 41.257813 82.664063 42.1875 L 61.234375 63.617188 C 60.769531 64.082031 60.136719 64.285156 59.523438 64.285156 C 58.910156 64.285156 58.277344 64.082031 57.8125 63.617188 L 36.382813 42.1875 C 35.453125 41.257813 35.453125 39.695313 36.382813 38.765625 C 37.3125 37.835938 38.875 37.835938 39.804688 38.765625 L 57.144531 56.175781 L 57.144531 16.667969 L 23.066406 16.667969 C 20.898438 16.667969 18.9375 18.285156 18.601563 20.3125 L 5.582031 77.082031 C 6.78125 76.535156 8.109375 76.191406 9.523438 76.191406 L 109.523438 76.191406 C 110.898438 76.191406 112.210938 76.480469 113.394531 77.007813 L 100.445313 20.460938 C 100.082031 18.292969 98.160156 16.667969 95.980469 16.667969 Z M 9.523438 80.953125 C 6.902344 80.953125 4.761719 83.089844 4.761719 85.714844 L 4.761719 104.761719 C 4.761719 107.382813 6.902344 109.523438 9.523438 109.523438 L 109.523438 109.523438 C 112.148438 109.523438 114.285156 107.382813 114.285156 104.761719 L 114.285156 85.714844 C 114.285156 83.089844 112.148438 80.953125 109.523438 80.953125 Z M 95.238281 90.476563 C 97.871094 90.476563 100 92.605469 100 95.238281 C 100 97.871094 97.871094 100 95.238281 100 C 92.605469 100 90.476563 97.871094 90.476563 95.238281 C 90.476563 92.605469 92.605469 90.476563 95.238281 90.476563 Z "/>
</g>
</svg>
