<?xml version="1.0" encoding="iso-8859-1"?>
<!-- Generator: Adobe Illustrator 19.0.0, SVG Export Plug-In . SVG Version: 6.00 Build 0)  -->
<svg version="1.1" id="Capa_1" xmlns="http://www.w3.org/2000/svg" xmlns:xlink="http://www.w3.org/1999/xlink" x="0px" y="0px"
	 viewBox="0 0 368.001 368.001" style="enable-background:new 0 0 368.001 368.001;" xml:space="preserve">
<g>
	<g>
		<path d="M56.002,48.001h-48c-4.416,0-8,3.584-8,8s3.584,8,8,8h48c30.88,0,56,25.12,56,56c0,4.416,3.584,8,8,8s8-3.584,8-8
			C128.002,80.305,95.697,48.001,56.002,48.001z"/>
	</g>
</g>
<g>
	<g>
		<path d="M365.65,306.329l-47.992-47.992c-3.128-3.128-8.184-3.128-11.312,0c-3.128,3.128-3.128,8.184,0,11.312l34.344,34.352
			H192.002v-48.408c62.44-4.144,112-56.12,112-119.592v-26.456l58.816-22.048c3.112-1.176,5.184-4.16,5.184-7.496
			s-2.072-6.32-5.184-7.496l-59.096-22.16c-2.848-28.224-26.752-50.344-55.72-50.344c-30.872,0-56,25.12-56,56v64
			c0,4.408-3.592,8-8,8c-4.408,0-8-3.592-8-8c0-66.168-53.832-120-120-120h-48c-4.416,0-8,3.584-8,8s3.584,8,8,8h48
			c57.344,0,104,46.656,104,104c0,13.232,10.768,24,24,24s24-10.768,24-24v-64c0-22.056,17.944-40,40-40c22.056,0,40,17.944,40,40
			c0,3.336,2.072,6.32,5.184,7.496l44.032,16.504l-44.032,16.504c-3.112,1.176-5.184,4.16-5.184,7.496v32
			c0,57.344-46.656,104-104,104s-104-46.656-104-104c0-22.056-17.944-40-40-40h-32c-4.416,0-8,3.584-8,8s3.584,8,8,8h32
			c13.232,0,24,10.768,24,24c0,63.472,49.56,115.448,112,119.592v48.408h-52.688l-45.656-45.656
			c-1.496-1.504-3.536-2.344-5.656-2.344h-64c-3.232,0-6.152,1.944-7.392,4.936c-1.24,2.992-0.552,6.432,1.736,8.72l42.344,42.344
			L2.346,354.345c-2.288,2.288-2.976,5.728-1.736,8.72c1.24,2.992,4.16,4.936,7.392,4.936h64c2.12,0,4.16-0.84,5.656-2.344
			l45.656-45.656h52.688v40c0,4.424,3.584,8,8,8s8-3.576,8-8v-40H340.69l-34.344,34.344c-3.128,3.128-3.128,8.184,0,11.312
			c1.56,1.56,3.608,2.344,5.656,2.344c2.048,0,4.096-0.784,5.656-2.344l47.992-47.992c0.744-0.736,1.328-1.624,1.736-2.608
			c0.808-1.952,0.808-4.152,0-6.112C366.978,307.961,366.386,307.073,365.65,306.329z M68.689,352.001H27.314l34.344-34.344
			c3.128-3.128,3.128-8.184,0-11.312l-34.344-34.344h41.376l40,40L68.689,352.001z"/>
	</g>
</g>
<g>
</g>
<g>
</g>
<g>
</g>
<g>
</g>
<g>
</g>
<g>
</g>
<g>
</g>
<g>
</g>
<g>
</g>
<g>
</g>
<g>
</g>
<g>
</g>
<g>
</g>
<g>
</g>
<g>
</g>
</svg>
