<?xml version="1.0" encoding="UTF-8"?>
<svg xmlns="http://www.w3.org/2000/svg" xmlns:xlink="http://www.w3.org/1999/xlink" width="120pt" height="120pt" viewBox="0 0 120 120" version="1.1">
<g id="surface1">
<path style=" stroke:none;fill-rule:nonzero;fill:#047991;fill-opacity:1;" d="M 65.410156 8.351563 C 64.445313 8.351563 63.578125 8.9375 63.207031 9.832031 C 62.84375 10.734375 63.058594 11.757813 63.753906 12.433594 C 74.003906 22.683594 74.003906 39.21875 63.753906 49.480469 C 63.132813 50.074219 62.882813 50.957031 63.105469 51.796875 C 63.320313 52.621094 63.96875 53.28125 64.804688 53.496094 C 65.632813 53.710938 66.527344 53.460938 67.121094 52.835938 C 79.183594 40.773438 79.183594 21.132813 67.121094 9.066406 C 66.675781 8.601563 66.0625 8.351563 65.410156 8.351563 Z M 58.675781 15.078125 C 57.710938 15.078125 56.835938 15.664063 56.472656 16.5625 C 56.109375 17.464844 56.324219 18.488281 57.023438 19.167969 C 63.550781 25.699219 63.550781 36.207031 57.023438 42.734375 C 56.398438 43.332031 56.148438 44.222656 56.371094 45.050781 C 56.585938 45.890625 57.234375 46.539063 58.074219 46.753906 C 58.902344 46.976563 59.792969 46.726563 60.390625 46.101563 C 68.742188 37.75 68.742188 24.152344 60.390625 15.800781 C 59.941406 15.335938 59.328125 15.078125 58.675781 15.078125 Z M 51.945313 21.820313 C 50.976563 21.820313 50.113281 22.40625 49.738281 23.296875 C 49.375 24.199219 49.589844 25.222656 50.289063 25.902344 C 53.097656 28.710938 53.097656 33.195313 50.289063 36.003906 C 49.664063 36.597656 49.414063 37.492188 49.636719 38.320313 C 49.851563 39.15625 50.503906 39.804688 51.339844 40.019531 C 52.167969 40.242188 53.058594 39.992188 53.65625 39.371094 C 58.285156 34.738281 58.285156 27.167969 53.65625 22.535156 C 53.207031 22.070313 52.59375 21.820313 51.945313 21.820313 Z M 23.808594 28.570313 C 22.5 28.570313 21.429688 29.640625 21.429688 30.953125 L 21.429688 76.191406 L 26.191406 76.191406 L 26.191406 30.953125 C 26.191406 29.640625 25.121094 28.570313 23.808594 28.570313 Z M 42.855469 28.570313 C 41.546875 28.570313 40.476563 29.640625 40.476563 30.953125 L 40.476563 76.191406 L 45.238281 76.191406 L 45.238281 30.953125 C 45.238281 29.640625 44.167969 28.570313 42.855469 28.570313 Z M 16.667969 80.953125 C 12.734375 80.953125 9.523438 84.160156 9.523438 88.09375 L 9.523438 102.382813 C 9.523438 106.316406 12.734375 109.523438 16.667969 109.523438 L 102.382813 109.523438 C 106.316406 109.523438 109.523438 106.316406 109.523438 102.382813 L 109.523438 88.09375 C 109.523438 84.160156 106.316406 80.953125 102.382813 80.953125 Z M 23.808594 92.855469 C 25.121094 92.855469 26.191406 93.925781 26.191406 95.238281 C 26.191406 96.550781 25.121094 97.617188 23.808594 97.617188 C 22.5 97.617188 21.429688 96.550781 21.429688 95.238281 C 21.429688 93.925781 22.5 92.855469 23.808594 92.855469 Z M 33.332031 92.855469 C 34.644531 92.855469 35.714844 93.925781 35.714844 95.238281 C 35.714844 96.550781 34.644531 97.617188 33.332031 97.617188 C 32.023438 97.617188 30.953125 96.550781 30.953125 95.238281 C 30.953125 93.925781 32.023438 92.855469 33.332031 92.855469 Z M 42.855469 92.855469 C 44.167969 92.855469 45.238281 93.925781 45.238281 95.238281 C 45.238281 96.550781 44.167969 97.617188 42.855469 97.617188 C 41.546875 97.617188 40.476563 96.550781 40.476563 95.238281 C 40.476563 93.925781 41.546875 92.855469 42.855469 92.855469 Z M 52.382813 92.855469 C 53.691406 92.855469 54.761719 93.925781 54.761719 95.238281 C 54.761719 96.550781 53.691406 97.617188 52.382813 97.617188 C 51.070313 97.617188 50 96.550781 50 95.238281 C 50 93.925781 51.070313 92.855469 52.382813 92.855469 Z M 61.90625 92.855469 C 63.214844 92.855469 64.285156 93.925781 64.285156 95.238281 C 64.285156 96.550781 63.214844 97.617188 61.90625 97.617188 C 60.59375 97.617188 59.523438 96.550781 59.523438 95.238281 C 59.523438 93.925781 60.59375 92.855469 61.90625 92.855469 Z "/>
</g>
</svg>
