<?xml version="1.0" encoding="UTF-8"?>
<svg xmlns="http://www.w3.org/2000/svg" xmlns:xlink="http://www.w3.org/1999/xlink" width="120pt" height="120pt" viewBox="0 0 120 120" version="1.1">
<g id="surface1">
<path style=" stroke:none;fill-rule:nonzero;fill:#047991;fill-opacity:1;" d="M 37.648438 0.371094 C 36.8125 0.371094 36.003906 0.566406 35.269531 0.894531 C 26.125 5.011719 33 31.390625 41.816406 53.050781 C 42.679688 44.066406 50.316406 36.980469 59.523438 36.980469 C 63.382813 36.980469 66.945313 38.300781 69.867188 40.402344 C 69.882813 40.410156 69.921875 40.390625 69.941406 40.402344 C 60.742188 21.800781 46.894531 0.371094 37.648438 0.371094 Z M 69.941406 40.402344 C 74.375 43.628906 77.304688 48.867188 77.304688 54.761719 C 77.304688 61.960938 72.980469 68.191406 66.816406 70.980469 C 71.605469 71.289063 76.320313 71.503906 80.804688 71.503906 C 91.777344 71.503906 117.402344 70.414063 118.378906 60.714844 C 119.382813 50.753906 93.097656 43.601563 69.941406 40.402344 Z M 66.816406 70.980469 C 66.769531 71 66.714844 70.964844 66.667969 70.980469 C 64.472656 71.957031 62.070313 72.542969 59.523438 72.542969 C 49.730469 72.542969 41.742188 64.554688 41.742188 54.761719 C 41.742188 54.175781 41.835938 53.617188 41.890625 53.050781 C 28.925781 72.507813 16.796875 96.976563 24.925781 102.828125 C 25.9375 103.554688 27.175781 103.945313 28.570313 103.945313 C 37.945313 103.945313 54.921875 86.28125 66.816406 70.980469 Z M 59.523438 41.667969 C 52.304688 41.667969 46.429688 47.542969 46.429688 54.761719 C 46.429688 61.980469 52.304688 67.855469 59.523438 67.855469 C 66.742188 67.855469 72.617188 61.980469 72.617188 54.761719 C 72.617188 47.542969 66.742188 41.667969 59.523438 41.667969 Z M 59.523438 48.808594 C 62.808594 48.808594 65.476563 51.46875 65.476563 54.761719 C 65.476563 58.054688 62.808594 60.714844 59.523438 60.714844 C 56.230469 60.714844 53.570313 58.054688 53.570313 54.761719 C 53.570313 51.46875 56.230469 48.808594 59.523438 48.808594 Z M 67.855469 77.679688 C 63.273438 83.359375 56.835938 90.867188 50 97.097656 L 48.363281 116.445313 C 48.308594 117.105469 48.503906 117.734375 48.957031 118.230469 C 49.414063 118.722656 50.074219 119.046875 50.742188 119.046875 L 68.304688 119.046875 C 68.964844 119.046875 69.570313 118.710938 70.015625 118.230469 C 70.460938 117.746094 70.730469 117.105469 70.683594 116.445313 Z "/>
</g>
</svg>
