<?xml version="1.0" encoding="UTF-8"?>
<svg xmlns="http://www.w3.org/2000/svg" xmlns:xlink="http://www.w3.org/1999/xlink" width="120pt" height="120pt" viewBox="0 0 120 120" version="1.1">
<g id="surface1">
<path style=" stroke:none;fill-rule:nonzero;fill:#047991;fill-opacity:1;" d="M 85.714844 90.476563 L 28.570313 90.476563 C 18.070313 90.476563 9.523438 81.929688 9.523438 71.429688 C 9.523438 60.929688 18.070313 52.382813 28.570313 52.382813 C 28.582031 52.382813 28.589844 52.382813 28.609375 52.382813 C 28.582031 51.980469 28.570313 51.582031 28.570313 51.191406 C 28.570313 37.40625 39.789063 26.191406 53.570313 26.191406 C 64.910156 26.191406 74.5625 33.640625 77.585938 44.289063 C 80.191406 43.339844 82.90625 42.855469 85.714844 42.855469 C 98.847656 42.855469 109.523438 53.535156 109.523438 66.667969 C 109.523438 79.800781 98.847656 90.476563 85.714844 90.476563 Z "/>
</g>
</svg>
