<?xml version="1.0" encoding="UTF-8"?>
<svg xmlns="http://www.w3.org/2000/svg" width="120pt" height="120pt"
     viewBox="0 0 120 120" version="1.1">
  <g id="surface1">
    <path style=" stroke:none;fill-rule:nonzero;fill:#047991;fill-opacity:1;"
          d="M 53.570313 26.191406 C 39.789063 26.191406 28.570313 37.40625 28.570313 51.191406 C 28.570313 51.601563 28.628906 51.980469 28.644531 52.382813 C 28.617188 52.382813 28.597656 52.382813 28.570313 52.382813 C 18.082031 52.382813 9.523438 60.9375 9.523438 71.429688 C 9.523438 81.917969 18.082031 90.476563 28.570313 90.476563 L 85.714844 90.476563 C 98.835938 90.476563 109.523438 79.789063 109.523438 66.667969 C 109.523438 53.542969 98.835938 42.855469 85.714844 42.855469 C 82.730469 42.855469 79.9375 43.5625 77.304688 44.570313 C 74.359375 34.039063 65.019531 26.191406 53.570313 26.191406 Z M 53.570313 30.953125 C 63.691406 30.953125 71.988281 38.328125 73.511719 47.992188 L 74.03125 51.265625 L 77.007813 49.777344 C 79.640625 48.417969 82.5625 47.617188 85.714844 47.617188 C 96.261719 47.617188 104.761719 56.121094 104.761719 66.667969 C 104.761719 77.214844 96.261719 85.714844 85.714844 85.714844 L 28.570313 85.714844 C 20.65625 85.714844 14.285156 79.34375 14.285156 71.429688 C 14.285156 63.515625 20.65625 57.144531 28.570313 57.144531 C 29.34375 57.144531 30.078125 57.234375 30.878906 57.367188 L 34.226563 57.886719 L 33.632813 54.613281 C 33.4375 53.46875 33.332031 52.324219 33.332031 51.191406 C 33.332031 39.984375 42.363281 30.953125 53.570313 30.953125 Z "/>
  </g>
</svg>
