<?xml version="1.0" encoding="UTF-8"?>
<svg xmlns="http://www.w3.org/2000/svg" width="120pt" height="120pt" viewBox="0 0 120 120" version="1.1">
  <g id="surface1">
    <path style=" stroke:none;fill-rule:nonzero;fill:#047991;fill-opacity:1;"
          d="M 53.570313 9.523438 C 39.882813 9.523438 28.570313 20.832031 28.570313 34.523438 C 28.570313 35 28.617188 35.277344 28.644531 35.722656 C 28.628906 35.722656 28.589844 35.714844 28.570313 35.714844 C 18.023438 35.714844 9.523438 44.214844 9.523438 54.761719 C 9.523438 65.308594 18.023438 73.808594 28.570313 73.808594 L 30.953125 73.808594 C 31.808594 73.820313 32.609375 73.371094 33.046875 72.628906 C 33.472656 71.882813 33.472656 70.972656 33.046875 70.230469 C 32.609375 69.484375 31.808594 69.039063 30.953125 69.046875 L 28.570313 69.046875 C 20.546875 69.046875 14.285156 62.789063 14.285156 54.761719 C 14.285156 46.734375 20.546875 40.476563 28.570313 40.476563 C 29.519531 40.476563 30.320313 40.550781 30.429688 40.585938 L 33.566406 41.640625 L 33.566406 38.328125 C 33.566406 36.820313 33.332031 35.398438 33.332031 34.523438 C 33.332031 23.457031 42.503906 14.285156 53.570313 14.285156 C 63.839844 14.285156 72.109375 21.746094 73.59375 31.324219 L 74.105469 34.542969 L 77.019531 33.082031 C 79.59375 31.796875 82.570313 30.953125 85.714844 30.953125 C 96.34375 30.953125 104.761719 39.371094 104.761719 50 C 104.761719 60.628906 96.34375 69.046875 85.714844 69.046875 L 83.332031 69.046875 C 82.476563 69.039063 81.679688 69.484375 81.242188 70.230469 C 80.8125 70.972656 80.8125 71.882813 81.242188 72.628906 C 81.679688 73.371094 82.476563 73.820313 83.332031 73.808594 L 85.714844 73.808594 C 98.894531 73.808594 109.523438 63.179688 109.523438 50 C 109.523438 36.820313 98.894531 26.191406 85.714844 26.191406 C 82.691406 26.191406 79.9375 26.914063 77.371094 27.890625 C 74.453125 17.4375 65.132813 9.523438 53.570313 9.523438 Z M 54.761719 47.617188 L 38.09375 69.046875 L 47.617188 69.046875 L 35.480469 88.09375 L 61.90625 64.285156 L 50 64.285156 L 66.667969 47.617188 Z M 69.046875 64.285156 L 52.382813 85.714844 L 62.136719 85.714844 L 50 104.761719 L 76.421875 80.953125 L 64.519531 80.953125 L 81.183594 64.285156 Z "/>
  </g>
</svg>
