<?xml version="1.0" encoding="UTF-8"?>
<svg xmlns="http://www.w3.org/2000/svg" width="120pt" height="120pt"
     viewBox="0 0 120 120" version="1.1">
  <g id="surface1">
    <path style=" stroke:none;fill-rule:nonzero;fill:#047991;fill-opacity:1;"
          d="M 53.570313 9.523438 C 39.761719 9.523438 28.570313 20.710938 28.570313 34.523438 L 28.570313 35.714844 C 18.097656 35.714844 9.523438 44.289063 9.523438 54.761719 C 9.523438 65.234375 18.097656 73.808594 28.570313 73.808594 L 44.523438 73.808594 L 47.617188 69.046875 L 38.09375 69.046875 L 54.761719 47.617188 L 66.667969 47.617188 L 50 64.285156 L 61.90625 64.285156 L 51.421875 73.808594 L 61.671875 73.808594 L 69.046875 64.285156 L 81.183594 64.285156 L 71.660156 73.808594 L 85.714844 73.808594 C 98.808594 73.808594 109.523438 63.09375 109.523438 50 C 109.523438 36.90625 98.808594 26.191406 85.714844 26.191406 C 82.859375 26.191406 80.234375 26.664063 77.613281 27.613281 C 74.527344 16.910156 65 9.523438 53.570313 9.523438 Z M 71.660156 73.808594 L 61.671875 73.808594 L 52.382813 85.714844 L 62.136719 85.714844 L 50 104.761719 L 76.421875 80.953125 L 64.519531 80.953125 Z M 51.421875 73.808594 L 44.523438 73.808594 L 35.480469 88.09375 Z "/>
  </g>
</svg>
