<?xml version="1.0" encoding="UTF-8"?>
<svg xmlns="http://www.w3.org/2000/svg" width="120pt" height="120pt"
     viewBox="0 0 120 120" version="1.1">
  <g id="surface1">
    <path style=" stroke:none;fill-rule:nonzero;fill:#047991;fill-opacity:1;"
          d="M 61.90625 11.90625 C 52.335938 11.90625 43.769531 17.585938 40.03125 26.265625 C 29.230469 25.222656 19.847656 32.320313 17.335938 42.410156 C 9.773438 45.859375 4.761719 53.542969 4.761719 61.90625 C 4.761719 73.726563 14.378906 83.332031 26.191406 83.332031 L 38.394531 83.332031 L 35.863281 89.582031 L 34.597656 92.855469 L 48.957031 92.855469 L 43.007813 108.707031 L 40.328125 115.773438 L 46.578125 111.457031 L 77.53125 90.253906 L 78.570313 89.507813 L 78.570313 85.714844 L 68.378906 85.714844 L 69.71875 83.332031 L 92.855469 83.332031 C 104.679688 83.332031 114.285156 73.726563 114.285156 61.90625 C 114.285156 53.609375 109.625 46.207031 102.230469 42.632813 C 101.003906 32.515625 92.679688 24.628906 82.515625 23.882813 C 78.273438 16.460938 70.507813 11.90625 61.90625 11.90625 Z M 50 69.046875 L 72.097656 69.046875 L 62.203125 86.90625 L 60.269531 90.476563 L 68.824219 90.476563 L 50.074219 103.347656 L 54.613281 91.292969 L 55.804688 88.09375 L 41.667969 88.09375 L 46.355469 76.339844 Z "/>
  </g>
</svg>
