<?xml version="1.0" encoding="UTF-8"?>
<svg xmlns="http://www.w3.org/2000/svg" xmlns:xlink="http://www.w3.org/1999/xlink" width="120pt" height="120pt" viewBox="0 0 120 120" version="1.1">
<g id="surface1">
<path style=" stroke:none;fill-rule:nonzero;fill:#047991;fill-opacity:1;" d="M 53.570313 11.90625 C 39.789063 11.90625 28.570313 23.121094 28.570313 36.90625 C 28.570313 37.296875 28.542969 37.695313 28.570313 38.09375 C 18.070313 38.09375 9.523438 46.640625 9.523438 57.144531 C 9.523438 66.582031 16.414063 74.480469 25.445313 75.96875 C 25.277344 77.230469 26.132813 78.402344 27.398438 78.628906 C 28.65625 78.851563 29.863281 78.03125 30.132813 76.785156 L 30.355469 76.191406 L 37.351563 76.191406 C 37.351563 77.390625 38.242188 78.402344 39.433594 78.554688 C 40.625 78.710938 41.742188 77.949219 42.039063 76.785156 L 42.261719 76.191406 L 49.257813 76.191406 C 49.257813 77.390625 50.148438 78.402344 51.339844 78.554688 C 52.53125 78.710938 53.644531 77.949219 53.945313 76.785156 L 54.167969 76.191406 L 61.160156 76.191406 C 61.160156 77.390625 62.054688 78.402344 63.242188 78.554688 C 64.433594 78.710938 65.550781 77.949219 65.847656 76.785156 L 66.070313 76.191406 L 73.066406 76.191406 C 73.066406 77.390625 73.957031 78.402344 75.148438 78.554688 C 76.339844 78.710938 77.457031 77.949219 77.753906 76.785156 L 77.976563 76.191406 L 84.96875 76.191406 C 84.96875 77.390625 85.863281 78.402344 87.054688 78.554688 C 88.242188 78.710938 89.359375 77.949219 89.65625 76.785156 L 90.03125 75.742188 C 101.097656 73.699219 109.523438 64.023438 109.523438 52.382813 C 109.523438 39.25 98.847656 28.570313 85.714844 28.570313 C 82.90625 28.570313 80.207031 29.027344 77.605469 29.984375 C 74.582031 19.335938 64.910156 11.90625 53.570313 11.90625 Z M 37.648438 80.730469 L 35.714844 81.621094 L 35.34375 82.367188 L 34.300781 85.863281 L 34.597656 88.019531 L 36.53125 88.988281 L 38.46875 88.019531 L 38.839844 87.277344 L 39.882813 83.78125 L 39.507813 81.695313 Z M 61.457031 80.730469 L 59.523438 81.621094 L 59.152344 82.367188 L 58.109375 85.863281 L 58.40625 88.019531 L 60.34375 88.988281 L 62.277344 88.019531 L 62.648438 87.277344 L 63.691406 83.78125 L 63.320313 81.695313 Z M 85.269531 80.730469 L 83.332031 81.621094 L 82.960938 82.367188 L 81.917969 85.863281 L 82.21875 88.019531 L 84.152344 88.988281 L 86.085938 88.019531 L 86.457031 87.277344 L 87.5 83.78125 L 87.128906 81.695313 Z M 24.628906 84.300781 L 22.695313 85.195313 L 22.320313 85.9375 L 20.683594 91.21875 L 21.054688 93.304688 L 22.992188 94.269531 L 24.851563 93.378906 L 25.296875 92.632813 L 26.859375 87.351563 L 26.5625 85.269531 Z M 48.4375 84.300781 L 46.503906 85.195313 L 46.132813 85.9375 L 44.492188 91.21875 L 44.867188 93.304688 L 46.800781 94.269531 L 48.660156 93.378906 L 49.105469 92.632813 L 50.667969 87.351563 L 50.371094 85.269531 Z M 72.246094 84.300781 L 70.3125 85.195313 L 69.941406 85.9375 L 68.378906 91.21875 L 68.675781 93.304688 L 70.609375 94.269531 L 72.542969 93.378906 L 72.917969 92.632813 L 74.480469 87.351563 L 74.179688 85.269531 Z M 34.152344 91.144531 C 34.050781 91.164063 33.945313 91.191406 33.855469 91.21875 C 33.015625 91.433594 32.355469 92.09375 32.144531 92.929688 L 31.398438 95.164063 C 31.082031 95.992188 31.257813 96.921875 31.84375 97.589844 C 32.429688 98.25 33.332031 98.53125 34.199219 98.316406 C 35.054688 98.113281 35.722656 97.433594 35.9375 96.578125 L 36.679688 94.269531 C 36.941406 93.5 36.785156 92.644531 36.273438 92.011719 C 35.761719 91.378906 34.960938 91.054688 34.152344 91.144531 Z M 57.960938 91.144531 C 57.859375 91.164063 57.757813 91.191406 57.664063 91.21875 C 56.828125 91.433594 56.167969 92.09375 55.953125 92.929688 L 55.207031 95.164063 C 54.890625 95.992188 55.070313 96.921875 55.65625 97.589844 C 56.242188 98.25 57.144531 98.53125 58.007813 98.316406 C 58.863281 98.113281 59.53125 97.433594 59.746094 96.578125 L 60.492188 94.269531 C 60.75 93.5 60.59375 92.644531 60.082031 92.011719 C 59.570313 91.378906 58.769531 91.054688 57.960938 91.144531 Z M 81.769531 91.144531 C 81.667969 91.164063 81.566406 91.191406 81.472656 91.21875 C 80.636719 91.433594 79.976563 92.09375 79.761719 92.929688 L 79.019531 95.164063 C 78.703125 95.992188 78.878906 96.921875 79.464844 97.589844 C 80.050781 98.25 80.953125 98.53125 81.816406 98.316406 C 82.671875 98.113281 83.34375 97.433594 83.554688 96.578125 L 84.300781 94.269531 C 84.5625 93.5 84.402344 92.644531 83.890625 92.011719 C 83.378906 91.378906 82.578125 91.054688 81.769531 91.144531 Z M 19.492188 100.074219 C 18.535156 100.1875 17.746094 100.863281 17.484375 101.785156 L 16.742188 104.09375 C 16.367188 105.367188 17.105469 106.695313 18.378906 107.070313 C 19.652344 107.441406 20.980469 106.707031 21.355469 105.429688 L 22.023438 103.199219 C 22.285156 102.425781 22.125 101.570313 21.613281 100.9375 C 21.101563 100.308594 20.304688 99.980469 19.492188 100.074219 Z M 43.304688 100.074219 C 42.34375 100.1875 41.554688 100.863281 41.292969 101.785156 L 40.550781 104.09375 C 40.179688 105.367188 40.914063 106.695313 42.1875 107.070313 C 43.460938 107.441406 44.792969 106.707031 45.164063 105.429688 L 45.832031 103.199219 C 46.09375 102.425781 45.9375 101.570313 45.425781 100.9375 C 44.914063 100.308594 44.113281 99.980469 43.304688 100.074219 Z M 67.113281 100.074219 C 66.15625 100.1875 65.363281 100.863281 65.105469 101.785156 L 64.359375 104.09375 C 63.988281 105.367188 64.722656 106.695313 65.996094 107.070313 C 67.269531 107.441406 68.601563 106.707031 68.972656 105.429688 L 69.644531 103.199219 C 69.902344 102.425781 69.746094 101.570313 69.234375 100.9375 C 68.722656 100.308594 67.921875 99.980469 67.113281 100.074219 Z "/>
</g>
</svg>
