<?xml version="1.0" encoding="UTF-8"?>
<svg xmlns="http://www.w3.org/2000/svg" width="120pt" height="120pt"
     viewBox="0 0 120 120" version="1.1">
  <g id="surface1">
    <path style=" stroke:none;fill-rule:nonzero;fill:#047991;fill-opacity:1;"
          d="M 59.078125 0 C 58.269531 0.148438 57.589844 0.714844 57.292969 1.488281 L 33.480469 58.632813 C 33.183594 59.367188 33.277344 60.203125 33.722656 60.863281 C 34.171875 61.523438 34.914063 61.914063 35.714844 61.90625 L 53.867188 61.90625 L 36.085938 115.328125 L 35.863281 115.921875 C 35.472656 117.058594 35.984375 118.304688 37.0625 118.832031 C 38.140625 119.363281 39.445313 119.011719 40.105469 118.007813 L 85.34375 48.957031 C 85.84375 48.222656 85.890625 47.265625 85.472656 46.484375 C 85.042969 45.703125 84.226563 45.21875 83.332031 45.238281 L 65.550781 45.238281 L 84.300781 3.347656 C 84.625 2.613281 84.5625 1.765625 84.125 1.089844 C 83.6875 0.417969 82.941406 0.0078125 82.144531 0 L 59.523438 0 C 59.449219 0 59.375 0 59.300781 0 C 59.226563 0 59.152344 0 59.078125 0 Z M 61.160156 4.761719 L 78.496094 4.761719 L 59.746094 46.652344 C 59.421875 47.386719 59.488281 48.234375 59.921875 48.910156 C 60.359375 49.582031 61.105469 49.992188 61.90625 50 L 78.867188 50 L 46.132813 100 L 59.375 60.269531 C 59.609375 59.550781 59.496094 58.761719 59.050781 58.136719 C 58.613281 57.523438 57.90625 57.152344 57.144531 57.144531 L 39.285156 57.144531 Z "/>
  </g>
</svg>
