<?xml version="1.0" encoding="UTF-8"?>
<svg xmlns="http://www.w3.org/2000/svg" width="120pt" height="120pt"
     viewBox="0 0 120 120" version="1.1">
  <g id="surface1">
    <path style=" stroke:none;fill-rule:nonzero;fill:#047991;fill-opacity:1;"
          d="M 53.570313 11.90625 C 39.796875 11.90625 28.570313 23.121094 28.570313 36.90625 C 28.570313 37.3125 28.628906 37.695313 28.644531 38.09375 C 28.617188 38.09375 28.597656 38.09375 28.570313 38.09375 C 18.082031 38.09375 9.523438 46.652344 9.523438 57.144531 C 9.523438 67.632813 18.082031 76.191406 28.570313 76.191406 L 44.34375 76.191406 L 44.269531 76.488281 C 43.953125 77.316406 44.132813 78.246094 44.71875 78.914063 C 45.304688 79.574219 46.207031 79.855469 47.070313 79.640625 C 47.925781 79.4375 48.59375 78.757813 48.808594 77.902344 L 49.40625 76.191406 L 58.78125 76.191406 C 58.78125 77.390625 59.671875 78.402344 60.863281 78.554688 C 62.054688 78.710938 63.167969 77.949219 63.46875 76.785156 L 63.691406 76.191406 L 85.714844 76.191406 C 98.835938 76.191406 109.523438 65.503906 109.523438 52.382813 C 109.523438 39.257813 98.835938 28.570313 85.714844 28.570313 C 82.730469 28.570313 79.9375 29.277344 77.304688 30.28125 C 74.359375 19.753906 65.019531 11.90625 53.570313 11.90625 Z M 53.570313 16.667969 C 63.691406 16.667969 71.988281 24.042969 73.511719 33.707031 L 74.03125 36.980469 L 77.007813 35.492188 C 79.640625 34.132813 82.5625 33.332031 85.714844 33.332031 C 96.261719 33.332031 104.761719 41.835938 104.761719 52.382813 C 104.761719 62.929688 96.261719 71.429688 85.714844 71.429688 L 62.351563 71.429688 C 62.054688 71.371094 61.757813 71.371094 61.457031 71.429688 L 48.066406 71.429688 C 47.769531 71.371094 47.46875 71.371094 47.171875 71.429688 L 28.570313 71.429688 C 20.65625 71.429688 14.285156 65.058594 14.285156 57.144531 C 14.285156 49.226563 20.65625 42.855469 28.570313 42.855469 C 29.34375 42.855469 30.078125 42.949219 30.878906 43.082031 L 34.226563 43.601563 L 33.632813 40.328125 C 33.4375 39.183594 33.332031 38.039063 33.332031 36.90625 C 33.332031 25.699219 42.363281 16.667969 53.570313 16.667969 Z M 58.554688 82.367188 L 56.621094 83.332031 L 56.25 84.078125 L 54.910156 88.394531 L 55.28125 90.476563 L 57.144531 91.445313 L 59.078125 90.550781 L 59.449219 89.804688 L 60.789063 85.492188 L 60.492188 83.332031 Z M 43.007813 85.789063 C 42.902344 85.808594 42.800781 85.835938 42.707031 85.863281 C 41.84375 86.058594 41.15625 86.71875 40.921875 87.574219 L 39.882813 90.996094 C 39.527344 91.84375 39.6875 92.8125 40.289063 93.5 C 40.894531 94.1875 41.835938 94.464844 42.71875 94.214844 C 43.601563 93.964844 44.261719 93.238281 44.417969 92.335938 L 45.460938 88.988281 C 45.75 88.214844 45.621094 87.359375 45.117188 86.710938 C 44.613281 86.058594 43.824219 85.714844 43.007813 85.789063 Z M 54.316406 95.3125 C 54.214844 95.332031 54.109375 95.359375 54.019531 95.386719 C 53.152344 95.582031 52.464844 96.242188 52.230469 97.097656 L 51.5625 99.332031 C 51.246094 100.15625 51.421875 101.089844 52.007813 101.757813 C 52.59375 102.417969 53.496094 102.695313 54.363281 102.484375 C 55.21875 102.277344 55.886719 101.601563 56.101563 100.742188 L 56.84375 98.4375 C 57.105469 97.664063 56.949219 96.808594 56.4375 96.175781 C 55.925781 95.546875 55.125 95.21875 54.316406 95.3125 Z "/>
  </g>
</svg>
