<?xml version="1.0" encoding="UTF-8"?>
<svg xmlns="http://www.w3.org/2000/svg" width="120pt" height="120pt"
     viewBox="0 0 120 120" version="1.1">
  <g id="surface1">
    <path style=" stroke:none;fill-rule:nonzero;fill:#047991;fill-opacity:1;"
          d="M 53.570313 11.90625 C 39.789063 11.90625 28.570313 23.121094 28.570313 36.90625 C 28.570313 37.3125 28.628906 37.695313 28.644531 38.09375 C 28.617188 38.09375 28.597656 38.09375 28.570313 38.09375 C 18.082031 38.09375 9.523438 46.652344 9.523438 57.144531 C 9.523438 67.632813 18.082031 76.191406 28.570313 76.191406 L 85.714844 76.191406 C 98.835938 76.191406 109.523438 65.503906 109.523438 52.382813 C 109.523438 39.257813 98.835938 28.570313 85.714844 28.570313 C 82.730469 28.570313 79.9375 29.277344 77.304688 30.28125 C 74.359375 19.753906 65.019531 11.90625 53.570313 11.90625 Z M 53.570313 16.667969 C 63.691406 16.667969 71.988281 24.042969 73.511719 33.707031 L 74.03125 36.980469 L 77.007813 35.492188 C 79.640625 34.132813 82.5625 33.332031 85.714844 33.332031 C 96.261719 33.332031 104.761719 41.835938 104.761719 52.382813 C 104.761719 62.929688 96.261719 71.429688 85.714844 71.429688 L 28.570313 71.429688 C 20.65625 71.429688 14.285156 65.058594 14.285156 57.144531 C 14.285156 49.226563 20.65625 42.855469 28.570313 42.855469 C 29.34375 42.855469 30.078125 42.949219 30.878906 43.082031 L 34.226563 43.601563 L 33.632813 40.328125 C 33.4375 39.183594 33.332031 38.039063 33.332031 36.90625 C 33.332031 25.699219 42.363281 16.667969 53.570313 16.667969 Z M 35.417969 83.332031 C 34.886719 83.390625 34.382813 83.632813 34.003906 84.003906 L 29.242188 88.765625 C 28.292969 89.714844 28.292969 91.238281 29.242188 92.1875 C 30.191406 93.136719 31.714844 93.136719 32.664063 92.1875 L 37.425781 87.425781 C 38.199219 86.710938 38.402344 85.574219 37.9375 84.636719 C 37.480469 83.6875 36.449219 83.164063 35.417969 83.332031 Z M 80.65625 83.332031 C 80.125 83.390625 79.621094 83.632813 79.242188 84.003906 L 74.480469 88.765625 C 73.53125 89.714844 73.53125 91.238281 74.480469 92.1875 C 75.429688 93.136719 76.953125 93.136719 77.902344 92.1875 L 82.664063 87.425781 C 83.4375 86.710938 83.640625 85.574219 83.175781 84.636719 C 82.71875 83.6875 81.6875 83.164063 80.65625 83.332031 Z M 56.84375 92.855469 C 56.316406 92.914063 55.8125 93.15625 55.429688 93.527344 L 50.667969 98.289063 C 49.722656 99.238281 49.722656 100.761719 50.667969 101.710938 C 51.617188 102.660156 53.144531 102.660156 54.09375 101.710938 L 58.855469 96.949219 C 59.625 96.234375 59.832031 95.097656 59.367188 94.160156 C 58.910156 93.210938 57.878906 92.691406 56.84375 92.855469 Z "/>
  </g>
</svg>
