<?xml version="1.0" encoding="UTF-8"?>
<svg xmlns="http://www.w3.org/2000/svg" xmlns:xlink="http://www.w3.org/1999/xlink" width="120pt" height="120pt" viewBox="0 0 120 120" version="1.1">
<g id="surface1">
<path style=" stroke:none;fill-rule:nonzero;fill:#047991;fill-opacity:1;" d="M 53.570313 11.90625 C 39.789063 11.90625 28.570313 23.121094 28.570313 36.90625 C 28.570313 37.296875 28.542969 37.695313 28.570313 38.09375 C 18.070313 38.09375 9.523438 46.640625 9.523438 57.144531 C 9.523438 67.644531 18.070313 76.191406 28.570313 76.191406 L 39.582031 76.191406 L 39.507813 76.488281 C 39.191406 77.316406 39.371094 78.246094 39.957031 78.914063 C 40.542969 79.574219 41.445313 79.855469 42.308594 79.640625 C 43.164063 79.4375 43.832031 78.757813 44.046875 77.902344 L 44.644531 76.191406 L 56.398438 76.191406 C 56.398438 77.390625 57.292969 78.402344 58.480469 78.554688 C 59.671875 78.710938 60.789063 77.949219 61.085938 76.785156 L 61.308594 76.191406 L 72.917969 76.191406 L 72.84375 76.488281 C 72.527344 77.316406 72.703125 78.246094 73.289063 78.914063 C 73.875 79.574219 74.777344 79.855469 75.640625 79.640625 C 76.496094 79.4375 77.167969 78.757813 77.382813 77.902344 L 77.976563 76.191406 L 85.714844 76.191406 C 98.847656 76.191406 109.523438 65.511719 109.523438 52.382813 C 109.523438 39.25 98.847656 28.570313 85.714844 28.570313 C 82.90625 28.570313 80.207031 29.027344 77.605469 29.984375 C 74.582031 19.335938 64.910156 11.90625 53.570313 11.90625 Z M 56.175781 82.367188 L 54.242188 83.332031 L 53.867188 84.078125 L 52.53125 88.394531 L 52.902344 90.476563 L 54.761719 91.445313 L 56.695313 90.550781 L 57.070313 89.804688 L 58.40625 85.492188 L 58.109375 83.332031 Z M 38.242188 85.789063 C 38.140625 85.808594 38.039063 85.835938 37.945313 85.863281 C 37.082031 86.058594 36.394531 86.71875 36.160156 87.574219 L 35.117188 90.996094 C 34.765625 91.84375 34.921875 92.8125 35.527344 93.5 C 36.132813 94.1875 37.070313 94.464844 37.957031 94.214844 C 38.839844 93.964844 39.5 93.238281 39.65625 92.335938 L 40.699219 88.988281 C 40.988281 88.214844 40.859375 87.359375 40.355469 86.710938 C 39.851563 86.058594 39.0625 85.714844 38.242188 85.789063 Z M 71.578125 85.789063 C 71.476563 85.808594 71.371094 85.835938 71.28125 85.863281 C 70.414063 86.058594 69.726563 86.71875 69.492188 87.574219 L 68.453125 90.996094 C 68.097656 91.84375 68.257813 92.8125 68.863281 93.5 C 69.464844 94.1875 70.40625 94.464844 71.289063 94.214844 C 72.171875 93.964844 72.832031 93.238281 72.992188 92.335938 L 74.03125 88.988281 C 74.320313 88.214844 74.191406 87.359375 73.6875 86.710938 C 73.1875 86.058594 72.394531 85.714844 71.578125 85.789063 Z M 51.933594 95.3125 C 51.832031 95.332031 51.730469 95.359375 51.636719 95.386719 C 50.773438 95.582031 50.082031 96.242188 49.851563 97.097656 L 49.179688 99.332031 C 48.867188 100.15625 49.042969 101.089844 49.628906 101.757813 C 50.214844 102.417969 51.117188 102.695313 51.980469 102.484375 C 52.835938 102.277344 53.507813 101.601563 53.71875 100.742188 L 54.464844 98.4375 C 54.726563 97.664063 54.566406 96.808594 54.054688 96.175781 C 53.542969 95.546875 52.742188 95.21875 51.933594 95.3125 Z "/>
</g>
</svg>
