<?xml version="1.0" encoding="UTF-8"?>
<svg xmlns="http://www.w3.org/2000/svg" xmlns:xlink="http://www.w3.org/1999/xlink" width="120pt" height="120pt" viewBox="0 0 120 120" version="1.1">
<g id="surface1">
<path style=" stroke:none;fill-rule:nonzero;fill:#047991;fill-opacity:1;" d="M 73.808594 3.050781 L 71.875 5.730469 C 71.875 5.730469 68.824219 9.933594 65.773438 15.328125 C 62.722656 20.722656 59.523438 27.167969 59.523438 32.8125 C 59.523438 40.914063 65.894531 47.617188 73.808594 47.617188 C 81.722656 47.617188 88.09375 40.914063 88.09375 32.8125 C 88.09375 27.167969 84.894531 20.722656 81.84375 15.328125 C 78.792969 9.933594 75.742188 5.730469 75.742188 5.730469 Z M 73.808594 11.605469 C 74.886719 13.179688 75.742188 14.285156 77.679688 17.707031 C 80.582031 22.84375 83.332031 29.214844 83.332031 32.8125 C 83.332031 38.449219 79.035156 42.855469 73.808594 42.855469 C 68.582031 42.855469 64.285156 38.449219 64.285156 32.8125 C 64.285156 29.214844 67.039063 22.84375 69.941406 17.707031 C 71.875 14.285156 72.730469 13.179688 73.808594 11.605469 Z M 46.429688 28.347656 C 46.328125 28.367188 46.222656 28.394531 46.132813 28.421875 C 45.601563 28.535156 45.136719 28.824219 44.792969 29.242188 C 44.765625 29.269531 44.746094 29.289063 44.71875 29.316406 C 41.488281 32.253906 36.441406 33.332031 33.332031 33.332031 C 30.355469 33.332031 25.632813 32.28125 22.394531 29.613281 C 21.894531 28.792969 20.964844 28.359375 20.015625 28.496094 C 19.941406 28.515625 19.867188 28.542969 19.792969 28.570313 C 19.476563 28.636719 19.167969 28.757813 18.898438 28.945313 C 18.851563 28.960938 18.796875 28.988281 18.75 29.019531 C 18.75 29.046875 18.75 29.0625 18.75 29.09375 C 18.703125 29.109375 18.648438 29.140625 18.601563 29.167969 C 18.601563 29.195313 18.601563 29.214844 18.601563 29.242188 C 18.488281 29.335938 18.398438 29.425781 18.304688 29.539063 C 15.078125 32.320313 10.175781 33.332031 7.144531 33.332031 C 6.289063 33.324219 5.488281 33.769531 5.050781 34.515625 C 4.621094 35.257813 4.621094 36.171875 5.050781 36.914063 C 5.488281 37.65625 6.289063 38.105469 7.144531 38.09375 C 10.816406 38.09375 15.960938 37.070313 20.238281 33.929688 C 24.515625 37.070313 29.660156 38.09375 33.332031 38.09375 C 36.996094 38.09375 42.160156 37.128906 46.429688 34.003906 C 49.582031 36.273438 53.394531 37.445313 56.695313 37.871094 C 56.257813 36.300781 55.960938 34.671875 55.953125 32.960938 C 53.570313 32.488281 50.984375 31.539063 48.882813 29.910156 C 48.511719 28.886719 47.507813 28.246094 46.429688 28.347656 Z M 98.4375 28.570313 C 97.953125 28.65625 97.515625 28.898438 97.171875 29.242188 C 97.144531 29.269531 97.125 29.289063 97.097656 29.316406 C 97.070313 29.34375 97.050781 29.363281 97.023438 29.390625 C 95.460938 30.785156 93.59375 31.734375 91.667969 32.367188 C 91.675781 32.515625 91.667969 32.664063 91.667969 32.8125 C 91.667969 34.421875 91.453125 35.9375 91.070313 37.425781 C 93.703125 36.8125 96.417969 35.660156 98.808594 33.929688 C 103.085938 37.070313 108.230469 38.09375 111.90625 38.09375 C 112.761719 38.105469 113.558594 37.65625 113.996094 36.914063 C 114.425781 36.171875 114.425781 35.257813 113.996094 34.515625 C 113.558594 33.769531 112.761719 33.324219 111.90625 33.332031 C 108.808594 33.332031 103.75 32.253906 100.519531 29.316406 C 100.492188 29.289063 100.472656 29.269531 100.445313 29.242188 C 100.25 29.054688 100.027344 28.90625 99.777344 28.792969 C 99.730469 28.777344 99.675781 28.738281 99.628906 28.71875 C 99.246094 28.570313 98.835938 28.515625 98.4375 28.570313 Z M 46.578125 54.539063 C 46.429688 54.546875 46.28125 54.574219 46.132813 54.613281 C 45.890625 54.679688 45.664063 54.78125 45.460938 54.910156 C 45.414063 54.929688 45.359375 54.957031 45.3125 54.984375 C 44.988281 55.160156 44.707031 55.421875 44.492188 55.730469 C 41.265625 58.511719 36.367188 59.523438 33.332031 59.523438 C 30.328125 59.523438 25.484375 58.527344 22.246094 55.804688 C 22.136719 55.664063 22.015625 55.542969 21.875 55.429688 C 21.855469 55.386719 21.828125 55.328125 21.800781 55.28125 C 21.640625 55.160156 21.464844 55.058594 21.28125 54.984375 C 21.25 54.957031 21.234375 54.9375 21.207031 54.910156 C 21.160156 54.910156 21.101563 54.910156 21.054688 54.910156 C 21.027344 54.882813 21.011719 54.863281 20.980469 54.835938 C 20.9375 54.835938 20.878906 54.835938 20.832031 54.835938 C 20.804688 54.808594 20.785156 54.789063 20.757813 54.761719 C 20.710938 54.761719 20.65625 54.761719 20.609375 54.761719 C 20.582031 54.761719 20.5625 54.761719 20.535156 54.761719 C 20.285156 54.726563 20.042969 54.726563 19.792969 54.761719 C 19.476563 54.828125 19.167969 54.949219 18.898438 55.132813 C 18.851563 55.152344 18.796875 55.179688 18.75 55.207031 C 18.75 55.234375 18.75 55.253906 18.75 55.28125 C 18.703125 55.300781 18.648438 55.328125 18.601563 55.355469 C 18.601563 55.386719 18.601563 55.402344 18.601563 55.429688 C 18.488281 55.523438 18.398438 55.617188 18.304688 55.730469 C 15.078125 58.511719 10.175781 59.523438 7.144531 59.523438 C 6.289063 59.515625 5.488281 59.960938 5.050781 60.703125 C 4.621094 61.449219 4.621094 62.359375 5.050781 63.105469 C 5.488281 63.847656 6.289063 64.296875 7.144531 64.285156 C 10.816406 64.285156 15.960938 63.261719 20.238281 60.117188 C 24.515625 63.261719 29.660156 64.285156 33.332031 64.285156 C 37.007813 64.285156 42.148438 63.261719 46.429688 60.117188 C 50.707031 63.261719 55.851563 64.285156 59.523438 64.285156 C 63.199219 64.285156 68.339844 63.261719 72.617188 60.117188 C 76.898438 63.261719 82.039063 64.285156 85.714844 64.285156 C 89.386719 64.285156 94.53125 63.261719 98.808594 60.117188 C 103.085938 63.261719 108.230469 64.285156 111.90625 64.285156 C 112.761719 64.296875 113.558594 63.847656 113.996094 63.105469 C 114.425781 62.359375 114.425781 61.449219 113.996094 60.703125 C 113.558594 59.960938 112.761719 59.515625 111.90625 59.523438 C 109.023438 59.523438 104.410156 58.601563 101.191406 56.101563 C 100.78125 55.023438 99.648438 54.390625 98.511719 54.613281 C 98.214844 54.6875 97.945313 54.808594 97.695313 54.984375 C 97.367188 55.160156 97.089844 55.421875 96.875 55.730469 C 93.648438 58.511719 88.746094 59.523438 85.714844 59.523438 C 82.832031 59.523438 78.21875 58.601563 75 56.101563 C 74.738281 55.46875 74.226563 54.984375 73.59375 54.753906 C 72.953125 54.53125 72.246094 54.585938 71.652344 54.910156 C 71.625 54.9375 71.605469 54.957031 71.578125 54.984375 C 71.550781 54.984375 71.53125 54.984375 71.503906 54.984375 C 71.28125 55.125 71.074219 55.300781 70.90625 55.507813 C 70.878906 55.535156 70.859375 55.550781 70.832031 55.582031 C 70.777344 55.625 70.730469 55.671875 70.683594 55.730469 C 67.457031 58.511719 62.554688 59.523438 59.523438 59.523438 C 56.640625 59.523438 52.027344 58.601563 48.808594 56.101563 C 48.808594 56.074219 48.808594 56.054688 48.808594 56.027344 C 48.445313 55.117188 47.554688 54.53125 46.578125 54.539063 Z M 45.238281 69.71875 L 43.304688 72.394531 C 43.304688 72.394531 40.253906 76.601563 37.203125 81.992188 C 34.152344 87.386719 30.953125 93.832031 30.953125 99.480469 C 30.953125 107.578125 37.324219 114.285156 45.238281 114.285156 C 53.152344 114.285156 59.523438 107.578125 59.523438 99.480469 C 59.523438 93.832031 56.324219 87.386719 53.273438 81.992188 C 50.222656 76.601563 47.171875 72.394531 47.171875 72.394531 Z M 45.238281 78.273438 C 46.316406 79.84375 47.171875 80.953125 49.105469 84.375 C 52.007813 89.507813 54.761719 95.878906 54.761719 99.480469 C 54.761719 105.117188 50.464844 109.523438 45.238281 109.523438 C 40.011719 109.523438 35.714844 105.117188 35.714844 99.480469 C 35.714844 95.878906 38.46875 89.507813 41.367188 84.375 C 43.304688 80.953125 44.160156 79.84375 45.238281 78.273438 Z M 98.957031 80.730469 C 98.808594 80.738281 98.660156 80.765625 98.511719 80.804688 C 98.269531 80.867188 98.046875 80.972656 97.84375 81.101563 C 97.796875 81.121094 97.738281 81.148438 97.695313 81.175781 C 97.367188 81.351563 97.089844 81.613281 96.875 81.917969 C 93.648438 84.699219 88.746094 85.714844 85.714844 85.714844 C 82.617188 85.714844 77.558594 84.636719 74.332031 81.695313 C 74.300781 81.667969 74.285156 81.648438 74.257813 81.621094 C 74.144531 81.511719 74.015625 81.40625 73.882813 81.324219 C 73.789063 81.269531 73.6875 81.222656 73.585938 81.175781 C 73.539063 81.15625 73.484375 81.121094 73.4375 81.101563 C 73.222656 81.015625 73 80.972656 72.769531 80.953125 C 72.695313 80.953125 72.617188 80.953125 72.542969 80.953125 C 72.441406 80.941406 72.347656 80.941406 72.246094 80.953125 C 72.171875 80.972656 72.097656 81 72.023438 81.027344 C 71.949219 81.046875 71.875 81.074219 71.800781 81.101563 C 71.492188 81.210938 71.214844 81.390625 70.980469 81.621094 C 70.953125 81.648438 70.9375 81.667969 70.90625 81.695313 C 70.824219 81.761719 70.75 81.835938 70.683594 81.917969 C 67.410156 84.746094 62.667969 85.714844 59.523438 85.714844 C 59.429688 85.714844 59.320313 85.714844 59.226563 85.714844 C 59.953125 87.265625 60.59375 88.820313 61.160156 90.402344 C 64.730469 90.121094 69.140625 88.96875 72.695313 86.382813 C 76.953125 89.480469 82.058594 90.476563 85.714844 90.476563 C 89.386719 90.476563 94.53125 89.453125 98.808594 86.308594 C 103.085938 89.453125 108.230469 90.476563 111.90625 90.476563 C 112.761719 90.484375 113.558594 90.039063 113.996094 89.296875 C 114.425781 88.550781 114.425781 87.640625 113.996094 86.894531 C 113.558594 86.152344 112.761719 85.703125 111.90625 85.714844 C 109.023438 85.714844 104.410156 84.792969 101.191406 82.292969 C 101.191406 82.265625 101.191406 82.246094 101.191406 82.21875 C 100.828125 81.304688 99.933594 80.71875 98.957031 80.730469 Z M 20.015625 80.878906 C 19.941406 80.898438 19.867188 80.925781 19.792969 80.953125 C 19.335938 81.054688 18.925781 81.289063 18.601563 81.621094 C 18.574219 81.648438 18.554688 81.667969 18.527344 81.695313 C 15.300781 84.636719 10.25 85.714844 7.144531 85.714844 C 6.289063 85.703125 5.488281 86.152344 5.050781 86.894531 C 4.621094 87.640625 4.621094 88.550781 5.050781 89.296875 C 5.488281 90.039063 6.289063 90.484375 7.144531 90.476563 C 10.808594 90.476563 15.96875 89.507813 20.238281 86.382813 C 23.046875 88.410156 26.367188 89.574219 29.390625 90.105469 C 29.957031 88.578125 30.617188 87.054688 31.324219 85.566406 C 28.460938 85.230469 25.007813 84.160156 22.394531 81.992188 C 21.894531 81.175781 20.964844 80.738281 20.015625 80.878906 Z "/>
</g>
</svg>
