<?xml version="1.0" encoding="UTF-8"?>
<svg xmlns="http://www.w3.org/2000/svg" width="120pt" height="120pt"
     viewBox="0 0 120 120" version="1.1">
  <g id="surface1">
    <path style=" stroke:none;fill-rule:nonzero;fill:#047991;fill-opacity:1;"
          d="M 40.253906 9.449219 C 40.152344 9.46875 40.046875 9.496094 39.957031 9.523438 C 38.847656 9.773438 38.066406 10.769531 38.09375 11.90625 L 38.09375 23.808594 C 38.085938 24.664063 38.53125 25.464844 39.277344 25.902344 C 40.019531 26.328125 40.933594 26.328125 41.675781 25.902344 C 42.421875 25.464844 42.867188 24.664063 42.855469 23.808594 L 42.855469 11.90625 C 42.886719 11.214844 42.605469 10.554688 42.113281 10.089844 C 41.609375 9.617188 40.933594 9.382813 40.253906 9.449219 Z M 13.320313 20.609375 C 13.214844 20.628906 13.113281 20.65625 13.019531 20.683594 C 12.128906 20.84375 11.410156 21.492188 11.160156 22.359375 C 10.910156 23.234375 11.171875 24.164063 11.832031 24.777344 L 20.238281 33.183594 C 21.1875 34.132813 22.710938 34.132813 23.660156 33.183594 C 24.609375 32.234375 24.609375 30.710938 23.660156 29.761719 L 15.253906 21.355469 C 14.761719 20.824219 14.042969 20.554688 13.320313 20.609375 Z M 67.1875 20.609375 C 67.085938 20.628906 66.984375 20.65625 66.890625 20.683594 C 66.433594 20.785156 66.023438 21.019531 65.699219 21.355469 L 57.292969 29.761719 C 56.34375 30.710938 56.34375 32.234375 57.292969 33.183594 C 58.242188 34.132813 59.765625 34.132813 60.714844 33.183594 L 69.121094 24.777344 C 69.941406 24.089844 70.199219 22.925781 69.746094 21.957031 C 69.289063 20.980469 68.246094 20.433594 67.1875 20.609375 Z M 40.476563 30.953125 C 29.949219 30.953125 21.429688 39.472656 21.429688 50 C 21.429688 57.300781 25.519531 63.617188 31.546875 66.816406 C 33.9375 64.089844 36.96875 61.953125 40.476563 60.714844 C 40.875 50.707031 46.464844 42.058594 54.613281 37.277344 C 51.125 33.398438 46.101563 30.953125 40.476563 30.953125 Z M 69.046875 38.09375 C 55.914063 38.09375 45.238281 48.773438 45.238281 61.90625 C 45.238281 62.742188 45.292969 63.589844 45.386719 64.433594 C 37.25 65.53125 30.953125 72.527344 30.953125 80.953125 C 30.953125 90.140625 38.429688 97.617188 47.617188 97.617188 L 97.617188 97.617188 C 109.441406 97.617188 119.046875 88.011719 119.046875 76.191406 C 119.046875 64.371094 109.441406 54.761719 97.617188 54.761719 C 95.683594 54.761719 93.796875 55.003906 91.964844 55.507813 C 89.144531 45.257813 79.921875 38.09375 69.046875 38.09375 Z M 1.933594 47.617188 C 0.625 47.738281 -0.34375 48.910156 -0.222656 50.222656 C -0.101563 51.535156 1.070313 52.5 2.382813 52.382813 L 14.285156 52.382813 C 15.140625 52.390625 15.941406 51.945313 16.378906 51.199219 C 16.804688 50.457031 16.804688 49.542969 16.378906 48.800781 C 15.941406 48.054688 15.140625 47.609375 14.285156 47.617188 L 2.382813 47.617188 C 2.304688 47.617188 2.230469 47.617188 2.15625 47.617188 C 2.082031 47.617188 2.007813 47.617188 1.933594 47.617188 Z M 21.726563 66.070313 C 21.625 66.089844 21.523438 66.117188 21.429688 66.144531 C 20.972656 66.25 20.5625 66.480469 20.238281 66.816406 L 11.832031 75.222656 C 10.882813 76.171875 10.882813 77.695313 11.832031 78.644531 C 12.777344 79.59375 14.304688 79.59375 15.253906 78.644531 L 23.660156 70.164063 C 24.40625 69.457031 24.617188 68.351563 24.179688 67.421875 C 23.734375 66.480469 22.75 65.941406 21.726563 66.070313 Z "/>
  </g>
</svg>
