<?xml version="1.0" encoding="UTF-8"?>
<svg xmlns="http://www.w3.org/2000/svg" width="120pt" height="120pt"
     viewBox="0 0 120 120" version="1.1">
  <g id="surface1">
    <path style=" stroke:none;fill-rule:nonzero;fill:#047991;fill-opacity:1;"
          d="M 40.476563 4.761719 C 39.164063 4.761719 38.09375 5.832031 38.09375 7.144531 L 38.09375 19.046875 C 38.09375 20.359375 39.164063 21.429688 40.476563 21.429688 C 41.789063 21.429688 42.855469 20.359375 42.855469 19.046875 L 42.855469 7.144531 C 42.855469 5.832031 41.789063 4.761719 40.476563 4.761719 Z M 13.542969 15.921875 C 12.9375 15.921875 12.296875 16.128906 11.832031 16.59375 C 10.898438 17.523438 10.898438 19.085938 11.832031 20.015625 L 20.3125 28.421875 C 20.777344 28.886719 21.335938 29.09375 21.949219 29.09375 C 22.5625 29.09375 23.195313 28.886719 23.660156 28.421875 C 24.589844 27.492188 24.589844 25.929688 23.660156 25 L 15.253906 16.59375 C 14.789063 16.128906 14.144531 15.921875 13.542969 15.921875 Z M 67.410156 15.921875 C 66.804688 15.921875 66.164063 16.128906 65.699219 16.59375 L 57.292969 25 C 56.363281 25.929688 56.363281 27.492188 57.292969 28.421875 C 57.757813 28.886719 58.390625 29.09375 59.003906 29.09375 C 59.617188 29.09375 60.25 28.886719 60.714844 28.421875 L 69.121094 20.015625 C 70.050781 19.085938 70.050781 17.523438 69.121094 16.59375 C 68.65625 16.128906 68.015625 15.921875 67.410156 15.921875 Z M 40.476563 26.191406 C 29.957031 26.191406 21.429688 34.71875 21.429688 45.238281 C 21.429688 52.53125 25.53125 58.855469 31.546875 62.054688 C 33.9375 59.335938 36.980469 57.1875 40.476563 55.953125 C 40.875 45.945313 46.476563 37.304688 54.613281 32.515625 C 51.125 28.636719 46.101563 26.191406 40.476563 26.191406 Z M 69.046875 33.332031 C 63.886719 33.332031 59.113281 35 55.207031 37.796875 C 54.84375 38.058594 54.511719 38.335938 54.167969 38.617188 C 53.988281 38.765625 53.824219 38.914063 53.644531 39.0625 C 52.789063 39.796875 52.007813 40.597656 51.265625 41.445313 C 51.023438 41.722656 50.753906 41.972656 50.519531 42.261719 C 50.398438 42.410156 50.269531 42.558594 50.148438 42.707031 C 49.683594 43.3125 49.285156 43.925781 48.882813 44.570313 C 48.6875 44.875 48.539063 45.21875 48.363281 45.535156 C 48.308594 45.636719 48.195313 45.730469 48.140625 45.832031 C 47.796875 46.464844 47.460938 47.097656 47.171875 47.769531 C 46.484375 49.347656 46.011719 51.015625 45.683594 52.753906 C 45.582031 53.320313 45.453125 53.886719 45.386719 54.464844 C 45.292969 55.339844 45.238281 56.242188 45.238281 57.144531 C 45.238281 57.980469 45.292969 58.828125 45.386719 59.671875 C 44.800781 59.757813 44.242188 59.90625 43.675781 60.042969 C 43.3125 60.136719 42.914063 60.15625 42.558594 60.269531 C 42.03125 60.433594 41.5 60.648438 40.996094 60.863281 C 40.847656 60.929688 40.699219 61.011719 40.550781 61.085938 C 39.175781 61.726563 37.964844 62.566406 36.832031 63.542969 C 36.710938 63.644531 36.578125 63.726563 36.457031 63.839844 C 33.089844 66.890625 30.953125 71.296875 30.953125 76.191406 C 30.953125 85.378906 38.429688 92.855469 47.617188 92.855469 L 97.617188 92.855469 C 109.441406 92.855469 119.046875 83.25 119.046875 71.429688 C 119.046875 59.617188 109.441406 50 97.617188 50 C 95.683594 50 93.796875 50.242188 91.964844 50.742188 C 89.144531 40.496094 79.921875 33.332031 69.046875 33.332031 Z M 2.382813 42.855469 C 1.070313 42.855469 0 43.925781 0 45.238281 C 0 46.550781 1.070313 47.617188 2.382813 47.617188 L 14.285156 47.617188 C 15.597656 47.617188 16.667969 46.550781 16.667969 45.238281 C 16.667969 43.925781 15.597656 42.855469 14.285156 42.855469 Z M 21.949219 61.382813 C 21.34375 61.382813 20.777344 61.589844 20.3125 62.054688 L 11.832031 70.460938 C 10.898438 71.390625 10.898438 72.953125 11.832031 73.882813 C 12.296875 74.347656 12.929688 74.554688 13.542969 74.554688 C 14.15625 74.554688 14.789063 74.347656 15.253906 73.882813 L 23.660156 65.476563 C 24.589844 64.546875 24.589844 62.984375 23.660156 62.054688 C 23.195313 61.589844 22.554688 61.382813 21.949219 61.382813 Z M 52.382813 97.617188 C 51.777344 97.617188 51.132813 97.824219 50.667969 98.289063 L 45.90625 103.050781 C 44.976563 103.980469 44.976563 105.542969 45.90625 106.472656 C 46.371094 106.9375 47.003906 107.144531 47.617188 107.144531 C 48.234375 107.144531 48.867188 106.9375 49.332031 106.472656 L 54.09375 101.710938 C 55.023438 100.78125 55.023438 99.21875 54.09375 98.289063 C 53.628906 97.824219 52.984375 97.617188 52.382813 97.617188 Z M 97.617188 97.617188 C 97.015625 97.617188 96.371094 97.824219 95.90625 98.289063 L 91.144531 103.050781 C 90.214844 103.980469 90.214844 105.542969 91.144531 106.472656 C 91.609375 106.9375 92.242188 107.144531 92.855469 107.144531 C 93.472656 107.144531 94.101563 106.9375 94.570313 106.472656 L 99.332031 101.710938 C 100.261719 100.78125 100.261719 99.21875 99.332031 98.289063 C 98.867188 97.824219 98.222656 97.617188 97.617188 97.617188 Z M 73.808594 107.144531 C 73.203125 107.144531 72.5625 107.347656 72.097656 107.8125 L 67.335938 112.574219 C 66.40625 113.503906 66.40625 115.066406 67.335938 115.996094 C 67.800781 116.460938 68.433594 116.667969 69.046875 116.667969 C 69.660156 116.667969 70.292969 116.460938 70.757813 115.996094 L 75.519531 111.234375 C 76.449219 110.304688 76.449219 108.742188 75.519531 107.8125 C 75.054688 107.347656 74.414063 107.144531 73.808594 107.144531 Z "/>
  </g>
</svg>
