<?xml version="1.0" encoding="UTF-8"?>
<svg xmlns="http://www.w3.org/2000/svg" width="120pt" height="120pt"
     viewBox="0 0 120 120" version="1.1">
  <g id="surface1">
    <path style=" stroke:none;fill-rule:nonzero;fill:#047991;fill-opacity:1;"
          d="M 40.253906 4.6875 C 40.152344 4.707031 40.046875 4.734375 39.957031 4.761719 C 38.847656 5.011719 38.066406 6.007813 38.09375 7.144531 L 38.09375 19.046875 C 38.085938 19.902344 38.53125 20.703125 39.277344 21.140625 C 40.019531 21.566406 40.933594 21.566406 41.675781 21.140625 C 42.421875 20.703125 42.867188 19.902344 42.855469 19.046875 L 42.855469 7.144531 C 42.886719 6.453125 42.605469 5.792969 42.113281 5.328125 C 41.609375 4.855469 40.933594 4.621094 40.253906 4.6875 Z M 13.320313 15.847656 C 13.214844 15.867188 13.113281 15.894531 13.019531 15.921875 C 12.128906 16.082031 11.410156 16.730469 11.160156 17.597656 C 10.910156 18.472656 11.171875 19.402344 11.832031 20.015625 L 20.3125 28.421875 C 21.261719 29.34375 22.777344 29.335938 23.699219 28.386719 C 24.617188 27.4375 24.609375 25.921875 23.660156 25 L 15.253906 16.59375 C 14.761719 16.0625 14.042969 15.792969 13.320313 15.847656 Z M 67.1875 15.847656 C 67.085938 15.867188 66.984375 15.894531 66.890625 15.921875 C 66.433594 16.023438 66.023438 16.257813 65.699219 16.59375 L 57.292969 25 C 56.34375 25.949219 56.34375 27.472656 57.292969 28.421875 C 58.242188 29.371094 59.765625 29.371094 60.714844 28.421875 L 69.121094 20.015625 C 69.941406 19.328125 70.199219 18.164063 69.746094 17.195313 C 69.289063 16.21875 68.246094 15.671875 67.1875 15.847656 Z M 40.253906 26.191406 C 40.179688 26.210938 40.105469 26.238281 40.03125 26.265625 C 39.882813 26.273438 39.730469 26.300781 39.582031 26.339844 C 39.554688 26.367188 39.535156 26.386719 39.507813 26.414063 C 29.5 26.953125 21.429688 35.109375 21.429688 45.238281 C 21.429688 52.296875 25.277344 58.472656 31.027344 61.757813 C 31.761719 62.296875 32.738281 62.371094 33.546875 61.953125 C 34.355469 61.523438 34.847656 60.675781 34.820313 59.765625 C 34.792969 58.84375 34.246094 58.035156 33.40625 57.664063 C 29.101563 55.199219 26.191406 50.558594 26.191406 45.238281 C 26.191406 37.398438 32.503906 31.035156 40.328125 30.953125 C 40.375 30.953125 40.429688 30.953125 40.476563 30.953125 C 40.550781 30.953125 40.625 30.953125 40.699219 30.953125 C 44.148438 31.007813 47.257813 32.292969 49.703125 34.375 C 50.707031 35.238281 52.222656 35.117188 53.085938 34.113281 C 53.953125 33.109375 53.832031 31.59375 52.828125 30.730469 C 49.777344 28.125 45.832031 26.675781 41.59375 26.414063 C 41.519531 26.386719 41.445313 26.359375 41.367188 26.339844 C 41.128906 26.246094 40.875 26.199219 40.625 26.191406 C 40.578125 26.191406 40.523438 26.191406 40.476563 26.191406 C 40.402344 26.191406 40.328125 26.191406 40.253906 26.191406 Z M 69.046875 33.332031 C 55.925781 33.332031 45.238281 44.019531 45.238281 57.144531 C 45.238281 58.109375 45.414063 59.03125 45.535156 59.96875 C 37.386719 61.050781 30.953125 67.753906 30.953125 76.191406 C 30.953125 85.371094 38.4375 92.855469 47.617188 92.855469 L 97.617188 92.855469 C 109.421875 92.855469 119.046875 83.230469 119.046875 71.429688 C 119.046875 59.625 109.421875 50 97.617188 50 C 95.535156 50 93.648438 50.632813 91.742188 51.191406 C 89.054688 40.988281 80.078125 33.332031 69.046875 33.332031 Z M 69.046875 38.09375 C 78.609375 38.09375 86.46875 45.097656 87.871094 54.242188 L 88.320313 57.292969 L 91.144531 56.101563 C 93.136719 55.253906 95.3125 54.761719 97.617188 54.761719 C 106.855469 54.761719 114.285156 62.191406 114.285156 71.429688 C 114.285156 80.664063 106.855469 88.09375 97.617188 88.09375 L 47.617188 88.09375 C 41.015625 88.09375 35.714844 82.792969 35.714844 76.191406 C 35.714844 69.585938 41.015625 64.285156 47.617188 64.285156 C 47.628906 64.285156 47.757813 64.277344 48.066406 64.285156 L 51.191406 64.433594 L 50.519531 61.382813 C 50.203125 60 50 58.59375 50 57.144531 C 50 46.597656 58.5 38.09375 69.046875 38.09375 Z M 1.710938 42.855469 C 0.398438 43.042969 -0.519531 44.261719 -0.335938 45.574219 C -0.148438 46.882813 1.070313 47.804688 2.382813 47.617188 L 14.285156 47.617188 C 15.140625 47.628906 15.941406 47.183594 16.378906 46.4375 C 16.804688 45.695313 16.804688 44.78125 16.378906 44.039063 C 15.941406 43.292969 15.140625 42.847656 14.285156 42.855469 L 2.382813 42.855469 C 2.304688 42.855469 2.230469 42.855469 2.15625 42.855469 C 2.082031 42.855469 2.007813 42.855469 1.933594 42.855469 C 1.859375 42.855469 1.785156 42.855469 1.710938 42.855469 Z M 21.726563 61.308594 C 21.625 61.328125 21.523438 61.355469 21.429688 61.382813 C 21 61.496094 20.621094 61.726563 20.3125 62.054688 L 11.832031 70.460938 C 10.882813 71.410156 10.882813 72.933594 11.832031 73.882813 C 12.777344 74.832031 14.304688 74.832031 15.253906 73.882813 L 23.660156 65.402344 C 24.40625 64.695313 24.617188 63.589844 24.179688 62.65625 C 23.734375 61.71875 22.75 61.179688 21.726563 61.308594 Z M 52.082031 97.617188 C 51.554688 97.675781 51.050781 97.917969 50.667969 98.289063 L 45.90625 103.050781 C 44.960938 104 44.960938 105.523438 45.90625 106.472656 C 46.855469 107.421875 48.382813 107.421875 49.332031 106.472656 L 54.09375 101.710938 C 54.863281 100.996094 55.070313 99.859375 54.605469 98.921875 C 54.148438 97.972656 53.117188 97.453125 52.082031 97.617188 Z M 97.320313 97.617188 C 96.792969 97.675781 96.289063 97.917969 95.90625 98.289063 L 91.144531 103.050781 C 90.195313 104 90.195313 105.523438 91.144531 106.472656 C 92.09375 107.421875 93.621094 107.421875 94.570313 106.472656 L 99.332031 101.710938 C 100.101563 100.996094 100.308594 99.859375 99.84375 98.921875 C 99.386719 97.972656 98.355469 97.453125 97.320313 97.617188 Z M 73.511719 107.144531 C 72.980469 107.199219 72.480469 107.441406 72.097656 107.8125 L 67.335938 112.574219 C 66.386719 113.523438 66.386719 115.046875 67.335938 115.996094 C 68.285156 116.945313 69.808594 116.945313 70.757813 115.996094 L 75.519531 111.234375 C 76.292969 110.519531 76.496094 109.382813 76.03125 108.445313 C 75.578125 107.496094 74.542969 106.976563 73.511719 107.144531 Z "/>
  </g>
</svg>
