<?xml version="1.0" encoding="UTF-8"?>
<svg xmlns="http://www.w3.org/2000/svg" xmlns:xlink="http://www.w3.org/1999/xlink" width="120pt" height="120pt" viewBox="0 0 120 120" version="1.1">
<g id="surface1">
<path style=" stroke:none;fill-rule:nonzero;fill:#047991;fill-opacity:1;" d="M 53.570313 11.90625 C 39.789063 11.90625 28.570313 23.121094 28.570313 36.90625 C 28.570313 37.3125 28.628906 37.695313 28.644531 38.09375 C 28.617188 38.09375 28.597656 38.09375 28.570313 38.09375 C 18.082031 38.09375 9.523438 46.652344 9.523438 57.144531 C 9.523438 67.632813 18.082031 76.191406 28.570313 76.191406 L 85.714844 76.191406 C 98.835938 76.191406 109.523438 65.503906 109.523438 52.382813 C 109.523438 39.257813 98.835938 28.570313 85.714844 28.570313 C 82.730469 28.570313 79.9375 29.277344 77.304688 30.28125 C 74.359375 19.753906 65.019531 11.90625 53.570313 11.90625 Z M 53.570313 16.667969 C 63.691406 16.667969 71.988281 24.042969 73.511719 33.707031 L 74.03125 36.980469 L 77.007813 35.492188 C 79.640625 34.132813 82.5625 33.332031 85.714844 33.332031 C 96.261719 33.332031 104.761719 41.835938 104.761719 52.382813 C 104.761719 62.929688 96.261719 71.429688 85.714844 71.429688 L 28.570313 71.429688 C 20.65625 71.429688 14.285156 65.058594 14.285156 57.144531 C 14.285156 49.226563 20.65625 42.855469 28.570313 42.855469 C 29.34375 42.855469 30.078125 42.949219 30.878906 43.082031 L 34.226563 43.601563 L 33.632813 40.328125 C 33.4375 39.183594 33.332031 38.039063 33.332031 36.90625 C 33.332031 25.699219 42.363281 16.667969 53.570313 16.667969 Z M 59.226563 80.953125 C 58.695313 81.007813 58.195313 81.25 57.8125 81.621094 L 53.050781 86.382813 C 52.101563 87.332031 52.101563 88.859375 53.050781 89.804688 C 54 90.753906 55.523438 90.753906 56.472656 89.804688 L 61.234375 85.042969 C 62.007813 84.328125 62.210938 83.195313 61.746094 82.253906 C 61.289063 81.304688 60.257813 80.785156 59.226563 80.953125 Z M 33.035156 83.332031 C 32.503906 83.390625 32.003906 83.632813 31.621094 84.003906 L 26.859375 88.765625 C 25.910156 89.714844 25.910156 91.238281 26.859375 92.1875 C 27.808594 93.136719 29.335938 93.136719 30.28125 92.1875 L 35.042969 87.425781 C 35.816406 86.710938 36.019531 85.574219 35.554688 84.636719 C 35.101563 83.6875 34.066406 83.164063 33.035156 83.332031 Z M 80.65625 83.332031 C 80.125 83.390625 79.621094 83.632813 79.242188 84.003906 L 74.480469 88.765625 C 73.53125 89.714844 73.53125 91.238281 74.480469 92.1875 C 75.429688 93.136719 76.953125 93.136719 77.902344 92.1875 L 82.664063 87.425781 C 83.4375 86.710938 83.640625 85.574219 83.175781 84.636719 C 82.71875 83.6875 81.6875 83.164063 80.65625 83.332031 Z M 47.320313 92.855469 C 46.792969 92.914063 46.289063 93.15625 45.90625 93.527344 L 41.144531 98.289063 C 40.195313 99.238281 40.195313 100.761719 41.144531 101.710938 C 42.09375 102.660156 43.621094 102.660156 44.570313 101.710938 L 49.332031 96.949219 C 50.101563 96.234375 50.308594 95.097656 49.84375 94.160156 C 49.386719 93.210938 48.355469 92.691406 47.320313 92.855469 Z M 21.132813 95.238281 C 20.601563 95.292969 20.097656 95.535156 19.71875 95.90625 L 14.957031 100.667969 C 14.007813 101.617188 14.007813 103.144531 14.957031 104.09375 C 15.902344 105.039063 17.429688 105.039063 18.378906 104.09375 L 23.140625 99.332031 C 23.910156 98.613281 24.117188 97.480469 23.652344 96.539063 C 23.195313 95.589844 22.164063 95.070313 21.132813 95.238281 Z M 68.75 95.238281 C 68.21875 95.292969 67.71875 95.535156 67.335938 95.90625 L 62.574219 100.667969 C 61.625 101.617188 61.625 103.144531 62.574219 104.09375 C 63.523438 105.039063 65.046875 105.039063 65.996094 104.09375 L 70.757813 99.332031 C 71.53125 98.613281 71.734375 97.480469 71.269531 96.539063 C 70.816406 95.589844 69.78125 95.070313 68.75 95.238281 Z "/>
</g>
</svg>
