<?xml version="1.0" encoding="UTF-8"?>
<svg xmlns="http://www.w3.org/2000/svg" xmlns:xlink="http://www.w3.org/1999/xlink" width="120pt" height="120pt" viewBox="0 0 120 120" version="1.1">
<g id="surface1">
<path style=" stroke:none;fill-rule:nonzero;fill:#047991;fill-opacity:1;" d="M 53.570313 9.523438 C 39.789063 9.523438 28.570313 20.742188 28.570313 34.523438 C 28.570313 34.933594 28.628906 35.3125 28.644531 35.714844 C 28.617188 35.714844 28.597656 35.714844 28.570313 35.714844 C 18.082031 35.714844 9.523438 44.269531 9.523438 54.761719 C 9.523438 65.253906 18.082031 73.808594 28.570313 73.808594 L 38.09375 73.808594 C 38.949219 73.820313 39.75 73.371094 40.1875 72.628906 C 40.617188 71.882813 40.617188 70.972656 40.1875 70.230469 C 39.75 69.484375 38.949219 69.039063 38.09375 69.046875 L 28.570313 69.046875 C 20.65625 69.046875 14.285156 62.675781 14.285156 54.761719 C 14.285156 46.847656 20.65625 40.476563 28.570313 40.476563 C 29.34375 40.476563 30.078125 40.570313 30.878906 40.699219 L 34.226563 41.21875 L 33.632813 37.945313 C 33.4375 36.800781 33.332031 35.660156 33.332031 34.523438 C 33.332031 23.316406 42.363281 14.285156 53.570313 14.285156 C 63.691406 14.285156 71.988281 21.660156 73.511719 31.324219 L 74.03125 34.597656 L 77.007813 33.109375 C 79.640625 31.753906 82.5625 30.953125 85.714844 30.953125 C 96.261719 30.953125 104.761719 39.453125 104.761719 50 C 104.761719 60.546875 96.261719 69.046875 85.714844 69.046875 L 78.570313 69.046875 C 77.714844 69.039063 76.914063 69.484375 76.480469 70.230469 C 76.050781 70.972656 76.050781 71.882813 76.480469 72.628906 C 76.914063 73.371094 77.714844 73.820313 78.570313 73.808594 L 85.714844 73.808594 C 98.835938 73.808594 109.523438 63.125 109.523438 50 C 109.523438 36.875 98.835938 26.191406 85.714844 26.191406 C 82.730469 26.191406 79.9375 26.898438 77.304688 27.902344 C 74.359375 17.375 65.019531 9.523438 53.570313 9.523438 Z M 59.523438 61.90625 L 42.855469 83.332031 L 54.761719 83.332031 L 42.707031 102.382813 L 69.046875 78.570313 L 57.144531 78.570313 L 73.808594 61.90625 Z M 28.273438 80.953125 C 27.742188 81.007813 27.242188 81.25 26.859375 81.621094 L 17.335938 91.144531 C 16.386719 92.09375 16.386719 93.621094 17.335938 94.570313 C 18.285156 95.515625 19.808594 95.515625 20.757813 94.570313 L 30.28125 85.042969 C 31.054688 84.328125 31.257813 83.195313 30.792969 82.253906 C 30.339844 81.304688 29.304688 80.785156 28.273438 80.953125 Z M 85.417969 83.332031 C 84.886719 83.390625 84.382813 83.632813 84.003906 84.003906 L 74.480469 93.527344 C 73.53125 94.476563 73.53125 96 74.480469 96.949219 C 75.429688 97.898438 76.953125 97.898438 77.902344 96.949219 L 87.425781 87.425781 C 88.199219 86.710938 88.402344 85.574219 87.9375 84.636719 C 87.480469 83.6875 86.449219 83.164063 85.417969 83.332031 Z "/>
</g>
</svg>
