<?xml version="1.0" encoding="UTF-8"?>
<svg xmlns="http://www.w3.org/2000/svg" xmlns:xlink="http://www.w3.org/1999/xlink" width="120pt" height="120pt" viewBox="0 0 120 120" version="1.1">
<g id="surface1">
<path style=" stroke:none;fill-rule:nonzero;fill:#047991;fill-opacity:1;" d="M 53.570313 9.523438 C 39.789063 9.523438 28.570313 20.742188 28.570313 34.523438 C 28.570313 34.914063 28.542969 35.3125 28.570313 35.714844 C 18.070313 35.714844 9.523438 44.261719 9.523438 54.761719 C 9.523438 65.261719 18.070313 73.808594 28.570313 73.808594 L 50.296875 73.808594 L 59.523438 61.90625 L 73.808594 61.90625 L 61.90625 73.808594 L 85.714844 73.808594 C 98.847656 73.808594 109.523438 63.132813 109.523438 50 C 109.523438 36.867188 98.847656 26.191406 85.714844 26.191406 C 82.90625 26.191406 80.207031 26.65625 77.605469 27.605469 C 74.589844 16.953125 64.910156 9.523438 53.570313 9.523438 Z M 61.90625 73.808594 L 50.296875 73.808594 L 42.855469 83.332031 L 54.761719 83.332031 L 42.707031 102.382813 L 69.046875 78.570313 L 57.144531 78.570313 Z M 28.570313 80.953125 C 27.96875 80.953125 27.324219 81.15625 26.859375 81.621094 L 17.335938 91.144531 C 16.40625 92.074219 16.40625 93.636719 17.335938 94.570313 C 17.800781 95.035156 18.433594 95.238281 19.046875 95.238281 C 19.660156 95.238281 20.292969 95.035156 20.757813 94.570313 L 30.28125 85.042969 C 31.210938 84.113281 31.210938 82.550781 30.28125 81.621094 C 29.816406 81.15625 29.175781 80.953125 28.570313 80.953125 Z M 85.714844 83.332031 C 85.109375 83.332031 84.46875 83.539063 84.003906 84.003906 L 74.480469 93.527344 C 73.550781 94.457031 73.550781 96.019531 74.480469 96.949219 C 74.945313 97.414063 75.578125 97.617188 76.191406 97.617188 C 76.804688 97.617188 77.4375 97.414063 77.902344 96.949219 L 87.425781 87.425781 C 88.355469 86.496094 88.355469 84.933594 87.425781 84.003906 C 86.960938 83.539063 86.320313 83.332031 85.714844 83.332031 Z "/>
</g>
</svg>
