<?xml version="1.0" encoding="UTF-8"?>
<svg xmlns="http://www.w3.org/2000/svg" xmlns:xlink="http://www.w3.org/1999/xlink" width="120pt" height="120pt" viewBox="0 0 120 120" version="1.1">
<g id="surface1">
<path style=" stroke:none;fill-rule:nonzero;fill:#047991;fill-opacity:1;" d="M 59.300781 9.449219 C 59.199219 9.46875 59.097656 9.496094 59.003906 9.523438 C 57.894531 9.773438 57.113281 10.769531 57.144531 11.90625 L 57.144531 26.191406 C 57.132813 27.046875 57.578125 27.847656 58.324219 28.28125 C 59.066406 28.710938 59.980469 28.710938 60.722656 28.28125 C 61.46875 27.847656 61.914063 27.046875 61.90625 26.191406 L 61.90625 11.90625 C 61.933594 11.214844 61.652344 10.554688 61.160156 10.089844 C 60.660156 9.617188 59.980469 9.382813 59.300781 9.449219 Z M 25.371094 23.4375 C 24.480469 23.59375 23.761719 24.246094 23.511719 25.113281 C 23.261719 25.984375 23.519531 26.914063 24.179688 27.53125 L 34.300781 37.648438 C 34.878906 38.355469 35.796875 38.679688 36.691406 38.476563 C 37.574219 38.273438 38.273438 37.574219 38.476563 36.691406 C 38.679688 35.796875 38.355469 34.878906 37.648438 34.300781 L 27.53125 24.179688 C 27.035156 23.652344 26.320313 23.382813 25.59375 23.4375 C 25.519531 23.4375 25.445313 23.4375 25.371094 23.4375 Z M 92.929688 23.4375 C 92.390625 23.511719 91.890625 23.78125 91.519531 24.179688 L 81.398438 34.300781 C 80.691406 34.878906 80.367188 35.796875 80.570313 36.691406 C 80.777344 37.574219 81.472656 38.273438 82.355469 38.476563 C 83.25 38.679688 84.171875 38.355469 84.746094 37.648438 L 94.867188 27.53125 C 95.609375 26.824219 95.824219 25.714844 95.386719 24.785156 C 94.941406 23.847656 93.953125 23.308594 92.929688 23.4375 Z M 59.523438 35.714844 C 46.390625 35.714844 35.714844 46.390625 35.714844 59.523438 C 35.714844 72.65625 46.390625 83.332031 59.523438 83.332031 C 72.65625 83.332031 83.332031 72.65625 83.332031 59.523438 C 83.332031 46.390625 72.65625 35.714844 59.523438 35.714844 Z M 11.234375 57.144531 C 9.921875 57.328125 9.003906 58.546875 9.1875 59.859375 C 9.375 61.171875 10.59375 62.089844 11.90625 61.90625 L 26.191406 61.90625 C 27.046875 61.914063 27.847656 61.46875 28.28125 60.722656 C 28.710938 59.980469 28.710938 59.066406 28.28125 58.324219 C 27.847656 57.578125 27.046875 57.132813 26.191406 57.144531 L 11.90625 57.144531 C 11.832031 57.144531 11.757813 57.144531 11.679688 57.144531 C 11.605469 57.144531 11.53125 57.144531 11.457031 57.144531 C 11.382813 57.144531 11.308594 57.144531 11.234375 57.144531 Z M 92.1875 57.144531 C 90.875 57.328125 89.957031 58.546875 90.140625 59.859375 C 90.328125 61.171875 91.546875 62.089844 92.855469 61.90625 L 107.144531 61.90625 C 108 61.914063 108.796875 61.46875 109.234375 60.722656 C 109.664063 59.980469 109.664063 59.066406 109.234375 58.324219 C 108.796875 57.578125 108 57.132813 107.144531 57.144531 L 92.855469 57.144531 C 92.78125 57.144531 92.707031 57.144531 92.632813 57.144531 C 92.558594 57.144531 92.484375 57.144531 92.410156 57.144531 C 92.335938 57.144531 92.261719 57.144531 92.1875 57.144531 Z M 35.714844 80.65625 C 35.175781 80.730469 34.671875 81 34.300781 81.398438 L 24.179688 91.519531 C 23.476563 92.09375 23.148438 93.015625 23.355469 93.90625 C 23.558594 94.792969 24.257813 95.488281 25.140625 95.695313 C 26.03125 95.898438 26.953125 95.574219 27.53125 94.867188 L 37.648438 84.746094 C 38.355469 84.066406 38.570313 83.015625 38.1875 82.113281 C 37.816406 81.210938 36.914063 80.636719 35.9375 80.65625 C 35.863281 80.65625 35.789063 80.65625 35.714844 80.65625 Z M 82.589844 80.65625 C 81.695313 80.8125 80.980469 81.464844 80.730469 82.328125 C 80.476563 83.203125 80.738281 84.132813 81.398438 84.746094 L 91.519531 94.867188 C 92.09375 95.574219 93.015625 95.898438 93.90625 95.695313 C 94.792969 95.488281 95.488281 94.792969 95.695313 93.90625 C 95.898438 93.015625 95.574219 92.09375 94.867188 91.519531 L 84.746094 81.398438 C 84.300781 80.925781 83.6875 80.664063 83.035156 80.65625 C 82.960938 80.65625 82.886719 80.65625 82.8125 80.65625 C 82.738281 80.65625 82.664063 80.65625 82.589844 80.65625 Z M 59.300781 90.402344 C 59.199219 90.421875 59.097656 90.449219 59.003906 90.476563 C 57.894531 90.726563 57.113281 91.722656 57.144531 92.855469 L 57.144531 107.144531 C 57.132813 108 57.578125 108.796875 58.324219 109.234375 C 59.066406 109.664063 59.980469 109.664063 60.722656 109.234375 C 61.46875 108.796875 61.914063 108 61.90625 107.144531 L 61.90625 92.855469 C 61.933594 92.167969 61.652344 91.507813 61.160156 91.042969 C 60.660156 90.570313 59.980469 90.335938 59.300781 90.402344 Z "/>
</g>
</svg>
