<?xml version="1.0" encoding="UTF-8"?>
<svg xmlns="http://www.w3.org/2000/svg" width="120pt" height="120pt"
     viewBox="0 0 120 120" version="1.1">
  <g id="surface1">
    <path style=" stroke:none;fill-rule:nonzero;fill:#047991;fill-opacity:1;"
          d="M 34.523438 9.523438 C 27.335938 9.523438 20.972656 13.328125 17.390625 19.011719 C 16.472656 20.441406 16.398438 22.273438 17.1875 23.789063 C 17.988281 25.296875 19.53125 26.273438 21.242188 26.328125 C 22.953125 26.394531 24.5625 25.53125 25.457031 24.070313 C 27.363281 21.054688 30.664063 19.046875 34.523438 19.046875 C 40.597656 19.046875 45.386719 23.929688 45.238281 30.050781 C 45.078125 35.84375 39.871094 40.476563 33.808594 40.476563 L 11.90625 40.476563 C 10.183594 40.449219 8.59375 41.351563 7.730469 42.839844 C 6.855469 44.316406 6.855469 46.160156 7.730469 47.636719 C 8.59375 49.125 10.183594 50.027344 11.90625 50 L 33.808594 50 C 44.765625 50 54.464844 41.519531 54.761719 30.292969 C 55.050781 18.945313 45.824219 9.523438 34.523438 9.523438 Z M 88.09375 16.667969 C 79.167969 16.667969 71.316406 21.625 67.261719 28.953125 C 65.988281 31.25 66.816406 34.152344 69.121094 35.425781 C 71.417969 36.699219 74.320313 35.871094 75.59375 33.566406 C 78.03125 29.175781 82.671875 26.191406 88.09375 26.191406 C 96.335938 26.191406 102.855469 32.96875 102.351563 41.367188 C 101.898438 48.910156 95.15625 54.761719 87.351563 54.761719 L 11.90625 54.761719 C 10.183594 54.734375 8.59375 55.636719 7.730469 57.125 C 6.855469 58.601563 6.855469 60.445313 7.730469 61.921875 C 8.59375 63.410156 10.183594 64.3125 11.90625 64.285156 L 87.351563 64.285156 C 99.945313 64.285156 111.085938 54.753906 111.859375 41.9375 C 112.6875 28.21875 101.675781 16.667969 88.09375 16.667969 Z M 11.90625 69.046875 C 10.183594 69.019531 8.59375 69.921875 7.730469 71.410156 C 6.855469 72.890625 6.855469 74.730469 7.730469 76.210938 C 8.59375 77.695313 10.183594 78.597656 11.90625 78.570313 L 57.617188 78.570313 C 63.679688 78.570313 68.890625 83.203125 69.046875 88.996094 C 69.195313 95.117188 64.40625 100 58.332031 100 C 54.472656 100 51.171875 97.992188 49.265625 94.976563 C 48.371094 93.515625 46.761719 92.652344 45.050781 92.71875 C 43.339844 92.773438 41.796875 93.75 40.996094 95.257813 C 40.207031 96.773438 40.28125 98.605469 41.210938 100.039063 C 44.78125 105.71875 51.144531 109.523438 58.332031 109.523438 C 69.632813 109.523438 78.859375 100.101563 78.570313 88.753906 C 78.273438 77.53125 68.574219 69.046875 57.617188 69.046875 Z "/>
  </g>
</svg>
