<?xml version="1.0" encoding="UTF-8" standalone="no"?>
<!-- Created with Inkscape (http://www.inkscape.org/) -->

<svg
   width="643.68518mm"
   height="674.80133mm"
   viewBox="0 0 2280.7743 2391.0283"
   id="svg4396"
   version="1.1"
   inkscape:version="1.1.1 (3bf5ae0d25, 2021-09-20, custom)"
   sodipodi:docname="vortice_logo.svg"
   inkscape:export-filename="C:\Users\Carlos\Desktop\ESPOLETA ID PROPOSALS.png"
   inkscape:export-xdpi="325.55429"
   inkscape:export-ydpi="325.55429"
   xmlns:inkscape="http://www.inkscape.org/namespaces/inkscape"
   xmlns:sodipodi="http://sodipodi.sourceforge.net/DTD/sodipodi-0.dtd"
   xmlns="http://www.w3.org/2000/svg"
   xmlns:svg="http://www.w3.org/2000/svg"
   xmlns:rdf="http://www.w3.org/1999/02/22-rdf-syntax-ns#"
   xmlns:cc="http://creativecommons.org/ns#"
   xmlns:dc="http://purl.org/dc/elements/1.1/">
  <defs
     id="defs4398">
    <pattern
       y="0"
       x="0"
       height="6"
       width="6"
       patternUnits="userSpaceOnUse"
       id="EMFhbasepattern" />
    <pattern
       y="0"
       x="0"
       height="6"
       width="6"
       patternUnits="userSpaceOnUse"
       id="EMFhbasepattern-3" />
  </defs>
  <sodipodi:namedview
     id="base"
     pagecolor="#ffffff"
     bordercolor="#666666"
     borderopacity="1.0"
     inkscape:pageopacity="0"
     inkscape:pageshadow="2"
     inkscape:zoom="0.08"
     inkscape:cx="2806.25"
     inkscape:cy="2112.5"
     inkscape:document-units="px"
     inkscape:current-layer="layer1"
     showgrid="false"
     inkscape:window-width="1920"
     inkscape:window-height="1026"
     inkscape:window-x="0"
     inkscape:window-y="0"
     inkscape:window-maximized="1"
     inkscape:pagecheckerboard="false" />
  <metadata
     id="metadata4401">
    <rdf:RDF>
      <cc:Work
         rdf:about="">
        <dc:format>image/svg+xml</dc:format>
        <dc:type
           rdf:resource="http://purl.org/dc/dcmitype/StillImage" />
      </cc:Work>
    </rdf:RDF>
  </metadata>
  <g
     inkscape:label="Capa 1"
     inkscape:groupmode="layer"
     id="layer1"
     transform="translate(3019.7397,620.46708)">
    <g
       id="g89"
       inkscape:export-filename="/run/media/lazaroofarrill/Data2/Work/ESPOLETA/ESTMET/design/review/vortice_1.png"
       inkscape:export-xdpi="12.216637"
       inkscape:export-ydpi="12.216637"
       transform="translate(8508.032,8155.5792)">
      <path
         d="m -10085.479,-8013.5652 a 125.75009,125.75009 0 1 0 18.987,-250.072 473.9568,473.9568 0 0 0 -379.789,779.7701 11.922586,11.922586 0 0 0 19.291,-13.8994 340.78182,340.78182 0 0 1 341.511,-515.7987"
         style="fill:#000000;fill-opacity:1;stroke:#000000;stroke-width:20.3668;stroke-linecap:round;stroke-linejoin:round;stroke-miterlimit:4;stroke-dasharray:none"
         id="path6-6"
         inkscape:connector-curvature="0" />
      <path
         d="m -9737.972,-8316.5323 a 203.4631,203.4631 0 1 0 219.1144,-341.8932 766.50001,766.50001 0 0 0 -1145.4084,796.7109 19.060602,19.060602 0 0 0 37.801,-3.389 557.83374,557.83374 0 0 1 888.493,-451.4113"
         style="fill:#000000;fill-opacity:1;stroke:#000000;stroke-width:20.3668;stroke-linecap:round;stroke-linejoin:round;stroke-miterlimit:4;stroke-dasharray:none"
         id="path8-0"
         inkscape:connector-curvature="0" />
      <path
         d="m -10675.693,-7483.5369 a 125.75009,125.75009 0 1 0 -226.066,108.5666 473.9568,473.9568 0 0 0 865.204,-60.9636 11.922586,11.922586 0 0 0 -21.681,-9.7587 340.78182,340.78182 0 0 1 -617.457,-37.8443"
         style="fill:#000000;fill-opacity:1;stroke:#000000;stroke-width:20.3668;stroke-linecap:round;stroke-linejoin:round;stroke-miterlimit:4;stroke-dasharray:none"
         id="path10-5"
         inkscape:connector-curvature="0" />
      <path
         d="m -9717.3771,-7091.2295 a 475.21969,475.21969 0 0 0 -482.5469,-723.5034 11.922586,11.922586 0 0 0 2.607,23.6668 340.78182,340.78182 0 0 1 275.9024,553.6604 125.75009,125.75009 0 1 0 207.079,141.4706"
         style="fill:#000000;fill-opacity:1;stroke:#000000;stroke-width:20.3668;stroke-linecap:round;stroke-linejoin:round;stroke-miterlimit:4;stroke-dasharray:none"
         id="path16-1"
         inkscape:connector-curvature="0" />
      <path
         d="m -9652.5943,-6420.7211 a 768.17715,768.17715 0 0 0 -111.0562,-1393.8858 19.060602,19.060602 0 0 0 -15.9893,34.4683 557.83374,557.83374 0 0 1 -53.3122,995.1392 203.4631,203.4631 0 1 0 186.5275,360.7154"
         style="fill:#000000;fill-opacity:1;stroke:#000000;stroke-width:20.3668;stroke-linecap:round;stroke-linejoin:round;stroke-miterlimit:4;stroke-dasharray:none"
         id="path18-1"
         inkscape:connector-curvature="0" />
      <path
         d="m -11517.478,-7658.9414 a 768.17715,768.17715 0 0 0 1262.678,600.7376 19.060602,19.060602 0 0 0 -21.855,-31.0488 557.83374,557.83374 0 0 1 -835.138,-543.7409 203.4631,203.4631 0 1 0 -405.685,-18.8179"
         style="fill:#000000;fill-opacity:1;stroke:#000000;stroke-width:20.3668;stroke-linecap:round;stroke-linejoin:round;stroke-miterlimit:4;stroke-dasharray:none"
         id="path22-9"
         inkscape:connector-curvature="0" />
    </g>
  </g>
</svg>
