<?xml version="1.0" encoding="UTF-8" standalone="no"?>
<svg
  xmlns:dc="http://purl.org/dc/elements/1.1/"
  xmlns:cc="http://creativecommons.org/ns#"
  xmlns:rdf="http://www.w3.org/1999/02/22-rdf-syntax-ns#"
  xmlns="http://www.w3.org/2000/svg"
  xmlns:sodipodi="http://sodipodi.sourceforge.net/DTD/sodipodi-0.dtd"
  xmlns:inkscape="http://www.inkscape.org/namespaces/inkscape"
  width="25mm"
  height="25mm"
  viewBox="0 0 25.000001 25"
  version="1.1"
  id="svg8"
  inkscape:version="1.0.2 (e86c870879, 2021-01-15)"
  sodipodi:docname="vortex-logo-orange.svg">
  <defs
    id="defs2"/>
  <sodipodi:namedview
    id="base"
    pagecolor="#ffffff"
    bordercolor="#666666"
    borderopacity="1.0"
    inkscape:pageopacity="0.0"
    inkscape:pageshadow="2"
    inkscape:zoom="1.979899"
    inkscape:cx="34.842161"
    inkscape:cy="40.671657"
    inkscape:document-units="mm"
    inkscape:current-layer="layer1"
    inkscape:document-rotation="0"
    showgrid="false"
    inkscape:window-width="1920"
    inkscape:window-height="1026"
    inkscape:window-x="0"
    inkscape:window-y="28"
    inkscape:window-maximized="1"/>
  <metadata
    id="metadata5">
    <rdf:RDF>
      <cc:Work
        rdf:about="">
        <dc:format>image/svg+xml</dc:format>
        <dc:type
          rdf:resource="http://purl.org/dc/dcmitype/StillImage"/>
        <dc:title/>
      </cc:Work>
    </rdf:RDF>
  </metadata>
  <g
    inkscape:label="Layer 1"
    inkscape:groupmode="layer"
    id="layer1"
    transform="translate(-65.745049,-27.739023)">
    <rect
      style="fill:none;stroke:none;stroke-width:0.180385"
      id="rect879"
      width="25"
      height="25"
      x="65.745049"
      y="27.739023"
      inkscape:export-xdpi="508"
      inkscape:export-ydpi="508"/>
    <circle
      style="fill:#ffffff;stroke-width:0.331844"
      id="path849"
      cx="78.245049"
      cy="40.239021"
      r="12.5"/>
    <g
      id="Grupo_19"
      data-name="Grupo 19"
      transform="matrix(0.26458333,0,0,0.26458333,-1257.538,92.733429)"
      style="fill:#ff6600"
      inkscape:export-xdpi="508"
      inkscape:export-ydpi="508">
      <g
        id="Grupo_16"
        data-name="Grupo 16"
        transform="rotate(144,2575.4639,734.86359)"
        style="fill:#ff6600">
        <path
          id="Unión_1"
          data-name="Unión 1"
          d="m 37.811,29.317 v 0 A 24.413,24.413 0 0 0 13.6,7.251 q -0.771,0 -1.538,0.048 A 6.106,6.106 0 0 1 6.08,12.333 6.124,6.124 0 0 1 0,6.166 6.124,6.124 0 0 1 6.08,0 6.033,6.033 0 0 1 10.711,2.17 q 0.2,-0.024 0.4,-0.044 a 24.373,24.373 0 0 1 4.979,0 23.945,23.945 0 0 1 4.751,0.983 c 0.755,0.238 1.508,0.518 2.237,0.83 a 24.246,24.246 0 0 1 4.136,2.277 24.6,24.6 0 0 1 3.6,3.015 24.756,24.756 0 0 1 5.218,7.849 c 0.308,0.739 0.584,1.5 0.819,2.269 0.235,0.769 0.44,1.571 0.6,2.366 0.16,0.795 0.287,1.631 0.369,2.452 0.082,0.821 0.126,1.683 0.126,2.525 a 25.43,25.43 0 0 1 -0.136,2.625 v 0 z"
          fill="#eeeeee"
          style="fill:#ff6600"/>
        <path
          id="Unión_2"
          data-name="Unión 2"
          d="m 29.985,21.849 v 0 C 29.017,12.398 20.785,5.329 10.827,5.406 q -0.615,0 -1.226,0.046 A 4.89,4.89 0 0 1 4.807,9.274 4.654,4.654 0 0 1 0,4.674 4.836,4.836 0 0 1 4.883,0 4.844,4.844 0 0 1 8.559,1.6 L 8.875,1.564 c 0.655,-0.069 1.323,-0.106 1.984,-0.111 0.661,-0.005 1.329,0.022 1.983,0.08 0.654,0.058 1.292,0.147 1.924,0.266 0.632,0.119 1.248,0.267 1.856,0.443 0.608,0.176 1.2,0.38 1.777,0.611 a 19.313,19.313 0 0 1 3.282,1.686 18.938,18.938 0 0 1 2.853,2.245 18.457,18.457 0 0 1 2.347,2.73 17.958,17.958 0 0 1 1.763,3.14 17.612,17.612 0 0 1 1.381,5.318 18.043,18.043 0 0 1 -0.04,3.873 v 0 z"
          transform="matrix(0.985,0.174,-0.174,0.985,7.374,12.251)"
          fill="#eeeeee"
          style="fill:#ff6600"/>
      </g>
      <g
        id="Grupo_17"
        data-name="Grupo 17"
        transform="matrix(0.259,-0.966,0.966,0.259,5007.31,-178.438)"
        style="fill:#ff6600">
        <path
          id="Unión_1-2"
          data-name="Unión 1"
          d="m 37.824,29.332 v 0 A 24.423,24.423 0 0 0 13.6,7.255 q -0.772,0 -1.539,0.048 A 6.108,6.108 0 0 1 6.081,12.339 6.126,6.126 0 0 1 0,6.169 6.126,6.126 0 0 1 6.083,0 6.035,6.035 0 0 1 10.715,2.171 q 0.2,-0.024 0.4,-0.044 a 24.379,24.379 0 0 1 4.981,0 23.951,23.951 0 0 1 4.753,0.983 c 0.756,0.238 1.509,0.518 2.238,0.831 a 24.254,24.254 0 0 1 4.138,2.278 24.611,24.611 0 0 1 3.605,3.017 24.768,24.768 0 0 1 5.22,7.853 c 0.308,0.74 0.584,1.5 0.819,2.27 0.235,0.77 0.44,1.572 0.6,2.368 0.16,0.796 0.287,1.632 0.369,2.453 0.082,0.821 0.126,1.683 0.126,2.526 a 25.446,25.446 0 0 1 -0.136,2.627 v 0 z"
          fill="#eeeeee"
          style="fill:#ff6600"/>
        <path
          id="Unión_2-2"
          data-name="Unión 2"
          d="m 30,21.847 v 0 C 29.028,12.4 20.789,5.328 10.831,5.406 q -0.615,0 -1.226,0.046 A 4.892,4.892 0 0 1 4.805,9.274 4.654,4.654 0 0 1 0,4.675 4.838,4.838 0 0 1 4.885,0 4.846,4.846 0 0 1 8.563,1.6 L 8.879,1.564 c 0.655,-0.069 1.323,-0.106 1.985,-0.111 0.662,-0.005 1.329,0.022 1.984,0.08 0.655,0.058 1.293,0.147 1.925,0.266 0.632,0.119 1.249,0.267 1.856,0.443 0.607,0.176 1.2,0.38 1.778,0.61 a 19.32,19.32 0 0 1 3.283,1.69 18.941,18.941 0 0 1 2.854,2.245 18.456,18.456 0 0 1 2.348,2.729 17.954,17.954 0 0 1 1.764,3.14 17.6,17.6 0 0 1 1.381,5.318 A 18.036,18.036 0 0 1 30,21.847 Z"
          transform="matrix(0.985,0.174,-0.174,0.985,7.375,12.265)"
          fill="#eeeeee"
          style="fill:#ff6600"/>
      </g>
      <g
        id="Grupo_18"
        data-name="Grupo 18"
        transform="rotate(31,2958.9483,8977.9584)"
        style="fill:#ff6600">
        <path
          id="Unión_1-3"
          data-name="Unión 1"
          d="m 37.824,29.332 v 0 A 24.423,24.423 0 0 0 13.6,7.255 q -0.772,0 -1.539,0.048 A 6.108,6.108 0 0 1 6.081,12.339 6.126,6.126 0 0 1 0,6.169 6.126,6.126 0 0 1 6.083,0 6.035,6.035 0 0 1 10.715,2.171 q 0.2,-0.024 0.4,-0.044 a 24.379,24.379 0 0 1 4.981,0 23.951,23.951 0 0 1 4.753,0.983 c 0.756,0.238 1.509,0.518 2.238,0.831 a 24.254,24.254 0 0 1 4.138,2.278 24.611,24.611 0 0 1 3.605,3.017 24.768,24.768 0 0 1 5.22,7.853 c 0.308,0.74 0.584,1.5 0.819,2.27 0.235,0.77 0.44,1.572 0.6,2.368 0.16,0.796 0.287,1.632 0.369,2.453 0.082,0.821 0.126,1.683 0.126,2.526 a 25.446,25.446 0 0 1 -0.136,2.627 v 0 z"
          fill="#eeeeee"
          style="fill:#ff6600"/>
        <path
          id="Unión_2-3"
          data-name="Unión 2"
          d="m 30,21.847 v 0 C 29.028,12.4 20.789,5.328 10.831,5.406 q -0.615,0 -1.226,0.046 A 4.892,4.892 0 0 1 4.805,9.274 4.654,4.654 0 0 1 0,4.675 4.838,4.838 0 0 1 4.885,0 4.846,4.846 0 0 1 8.563,1.6 L 8.879,1.564 c 0.655,-0.069 1.323,-0.106 1.985,-0.111 0.662,-0.005 1.329,0.022 1.984,0.08 0.655,0.058 1.293,0.147 1.925,0.266 0.632,0.119 1.249,0.267 1.856,0.443 0.607,0.176 1.2,0.38 1.778,0.61 a 19.32,19.32 0 0 1 3.283,1.69 18.941,18.941 0 0 1 2.854,2.245 18.456,18.456 0 0 1 2.348,2.729 17.954,17.954 0 0 1 1.764,3.14 17.6,17.6 0 0 1 1.381,5.318 A 18.036,18.036 0 0 1 30,21.847 Z"
          transform="matrix(0.985,0.174,-0.174,0.985,7.375,12.265)"
          fill="#eeeeee"
          style="fill:#ff6600"/>
      </g>
    </g>
  </g>
</svg>
